<svg xmlns="http://www.w3.org/2000/svg" xmlns:xlink="http://www.w3.org/1999/xlink" viewBox="0 0 100 100" width="100" height="100" xmlns:c2pa="http://c2pa.org/manifest"><metadata><c2pa:manifest>AAAWgmp1bWIAAAAeanVtZGMycGEAEQAQgAAAqgA4m3EDYzJwYQAAABZcanVtYgAAAEdqdW1kYzJtYQARABCAAACqADibcQN1cm46YzJwYTo1NzViZTQwYi0xYWU1LTQ3MmMtOTIyMi02MjNhMTk5YjgzMzEAAAADl2p1bWIAAAApanVtZGMyYXMAEQAQgAAAqgA4m3EDYzJwYS5hc3NlcnRpb25zAAAAALxqdW1iAAAARGp1bWRjYm9yABEAEIAAAKoAOJtxE2MycGEuaW5ncmVkaWVudC52MwAAAAAYYzJzaEgD3zFFBIjEYDFjU9YWCqIAAABwY2JvcqNpZGM6Zm9ybWF0bWltYWdlL3N2Zyt4bWxqaW5zdGFuY2VJRHgseG1wOmlpZDplMDQ5M2U2My04Y2NiLTRlNjAtYWFmZC1mOWMwYzVmZGE3ZWZscmVsYXRpb25zaGlwaHBhcmVudE9mAAAB4mp1bWIAAABBanVtZGNib3IAEQAQgAAAqgA4m3ETYzJwYS5hY3Rpb25zLnYyAAAAABhjMnNoJp9iHM2uCs0cbpO2dmD4JQAAAZljYm9yomdhY3Rpb25zgqJmYWN0aW9ua2MycGEub3BlbmVkanBhcmFtZXRlcnOha2luZ3JlZGllbnRzgaJjdXJseC1zZWxmI2p1bWJmPWMycGEuYXNzZXJ0aW9ucy9jMnBhLmluZ3JlZGllbnQudjNkaGFzaFggZcJ7PNibpNoJHOyMuZH5xtMJEIlMWyw8tzVbjzpEYUakZmFjdGlvbngdY29tLmFudGhyb3BpYy5jbGF1ZGUucHJvdmlkZWRqcGFyYW1ldGVyc6F4H2NvbS5hbnRocm9waWMub3JpZ2luLWNvbmZpZGVuY2VndW5rbm93bmtkZXNjcmlwdGlvbnhmQ2xhdWRlIHByb3ZpZGVkIHRoaXMgZmlsZSBhdCB0aGUgcmVxdWVzdCBvZiBhIHVzZXIgYW5kIG1heSBoYXZlIGNyZWF0ZWQgb3IgbW9kaWZpZWQgdGhlIGZpbGUgY29udGVudHMubXNvZnR3YXJlQWdlbnShZG5hbWVmQ2xhdWRlcmFsbEFjdGlvbnNJbmNsdWRlZPUAAADIanVtYgAAAEBqdW1kY2JvcgARABCAAACqADibcRNjMnBhLmhhc2guZGF0YQAAAAAYYzJzaHw3Cpa5SZh6KxBW96i7uGIAAACAY2JvcqVjYWxnZnNoYTI1NmNwYWRNAAAAAAAAAAAAAAAAAGRoYXNoWCDqWR7F0T2rXaO4HMOEGqzZdLBgcejDkxgBulkXpDzEIGRuYW1lbmp1bWJmIG1hbmlmZXN0amV4Y2x1c2lvbnOBomVzdGFydBjBZmxlbmd0aBkeBAAAAj5qdW1iAAAAJ2p1bWRjMmNsABEAEIAAAKoAOJtxA2MycGEuY2xhaW0udjIAAAACD2Nib3KlY2FsZ2ZzaGEyNTZpc2lnbmF0dXJleE1zZWxmI2p1bWJmPS9jMnBhL3VybjpjMnBhOjU3NWJlNDBiLTFhZTUtNDcyYy05MjIyLTYyM2ExOTliODMzMS9jMnBhLnNpZ25hdHVyZWppbnN0YW5jZUlEeCx4bXA6aWlkOjYwZTdiMDEzLTQ5OGItNGExMi1hM2VlLTdmOTExZDllNjg4YnJjcmVhdGVkX2Fzc2VydGlvbnODomN1cmx4LXNlbGYjanVtYmY9YzJwYS5hc3NlcnRpb25zL2MycGEuaW5ncmVkaWVudC52M2RoYXNoWCBlwns82Juk2gkc7Iy5kfnG0wkQiUxbLDy3NVuPOkRhRqJjdXJseCpzZWxmI2p1bWJmPWMycGEuYXNzZXJ0aW9ucy9jMnBhLmFjdGlvbnMudjJkaGFzaFgguupzSvsF3G22PXKBtkJ7bgHwtnze+DWmcElRM2bRzgOiY3VybHgpc2VsZiNqdW1iZj1jMnBhLmFzc2VydGlvbnMvYzJwYS5oYXNoLmRhdGFkaGFzaFggktNXNVb7vZ8Q8EahLt0YaYGNmU8uv+Ot7l7uoLkViot0Y2xhaW1fZ2VuZXJhdG9yX2luZm+jZG5hbWVvQW50aHJvcGljIEZpbGVzZ3ZlcnNpb25lMS4wLjBrc3BlY1ZlcnNpb25lMi40LjAAABA4anVtYgAAAChqdW1kYzJjcwARABCAAACqADibcQNjMnBhLnNpZ25hdHVyZQAAABAIY2JvctKEWQISogEmGCFZAgowggIGMIIBjaADAgECAhRA5aAK7sI50L64g/oGQgU9Z1UTADAKBggqhkjOPQQDAzBJMRcwFQYDVQQKEw5BbnRocm9waWMsIFBCQzEuMCwGA1UEAxMlQW50aHJvcGljIENvbnRlbnQgQ3JlZGVudGlhbHMgUm9vdCBDQTAeFw0yNjA4MDcxODQzNTZaFw0yODA4MDYxOTQzNTZaMEQxFzAVBgNVBAoTDkFudGhyb3BpYywgUEJDMSkwJwYDVQQDEyBBbnRocm9waWMgQ2xhdWRlIENvbnRlbnQgU2lnbmluZzBZMBMGByqGSM49AgEGCCqGSM49AwEHA0IABJh6CmvLUBgFFNU0vUKlOVtE6djd17L5SuwX0LemFisBM3dkd/3cyjxFA3Qo5S46fX0/ihY0VZ7mfb9KF703t5OjWDBWMA4GA1UdDwEB/wQEAwIHgDAVBgNVHSUEDjAMBgorBgEEAYPoXgIBMAwGA1UdEwEB/wQCMAAwHwYDVR0jBBgwFoAUzlHiBIFOZFsj+OPEz5o+nMHXXMIwCgYIKoZIzj0EAwMDZwAwZAIwMXMdFJ4BetLLVY7ORuE9noqbbAZOZn/aArXyTwFAZfKrPzxF2vPoJNf1+UCdg1XGAjBwX1zd9WGqYkqmL5SFqw1QySjr1zJfpJM9+1rdDwSPLMOPOjKuiXjoU/pUUeG9RwmhY3BhZFkNngAAAAAAAAAAAAAAAAAAAAAAAAAAAAAAAAAAAAAAAAAAAAAAAAAAAAAAAAAAAAAAAAAAAAAAAAAAAAAAAAAAAAAAAAAAAAAAAAAAAAAAAAAAAAAAAAAAAAAAAAAAAAAAAAAAAAAAAAAAAAAAAAAAAAAAAAAAAAAAAAAAAAAAAAAAAAAAAAAAAAAAAAAAAAAAAAAAAAAAAAAAAAAAAAAAAAAAAAAAAAAAAAAAAAAAAAAAAAAAAAAAAAAAAAAAAAAAAAAAAAAAAAAAAAAAAAAAAAAAAAAAAAAAAAAAAAAAAAAAAAAAAAAAAAAAAAAAAAAAAAAAAAAAAAAAAAAAAAAAAAAAAAAAAAAAAAAAAAAAAAAAAAAAAAAAAAAAAAAAAAAAAAAAAAAAAAAAAAAAAAAAAAAAAAAAAAAAAAAAAAAAAAAAAAAAAAAAAAAAAAAAAAAAAAAAAAAAAAAAAAAAAAAAAAAAAAAAAAAAAAAAAAAAAAAAAAAAAAAAAAAAAAAAAAAAAAAAAAAAAAAAAAAAAAAAAAAAAAAAAAAAAAAAAAAAAAAAAAAAAAAAAAAAAAAAAAAAAAAAAAAAAAAAAAAAAAAAAAAAAAAAAAAAAAAAAAAAAAAAAAAAAAAAAAAAAAAAAAAAAAAAAAAAAAAAAAAAAAAAAAAAAAAAAAAAAAAAAAAAAAAAAAAAAAAAAAAAAAAAAAAAAAAAAAAAAAAAAAAAAAAAAAAAAAAAAAAAAAAAAAAAAAAAAAAAAAAAAAAAAAAAAAAAAAAAAAAAAAAAAAAAAAAAAAAAAAAAAAAAAAAAAAAAAAAAAAAAAAAAAAAAAAAAAAAAAAAAAAAAAAAAAAAAAAAAAAAAAAAAAAAAAAAAAAAAAAAAAAAAAAAAAAAAAAAAAAAAAAAAAAAAAAAAAAAAAAAAAAAAAAAAAAAAAAAAAAAAAAAAAAAAAAAAAAAAAAAAAAAAAAAAAAAAAAAAAAAAAAAAAAAAAAAAAAAAAAAAAAAAAAAAAAAAAAAAAAAAAAAAAAAAAAAAAAAAAAAAAAAAAAAAAAAAAAAAAAAAAAAAAAAAAAAAAAAAAAAAAAAAAAAAAAAAAAAAAAAAAAAAAAAAAAAAAAAAAAAAAAAAAAAAAAAAAAAAAAAAAAAAAAAAAAAAAAAAAAAAAAAAAAAAAAAAAAAAAAAAAAAAAAAAAAAAAAAAAAAAAAAAAAAAAAAAAAAAAAAAAAAAAAAAAAAAAAAAAAAAAAAAAAAAAAAAAAAAAAAAAAAAAAAAAAAAAAAAAAAAAAAAAAAAAAAAAAAAAAAAAAAAAAAAAAAAAAAAAAAAAAAAAAAAAAAAAAAAAAAAAAAAAAAAAAAAAAAAAAAAAAAAAAAAAAAAAAAAAAAAAAAAAAAAAAAAAAAAAAAAAAAAAAAAAAAAAAAAAAAAAAAAAAAAAAAAAAAAAAAAAAAAAAAAAAAAAAAAAAAAAAAAAAAAAAAAAAAAAAAAAAAAAAAAAAAAAAAAAAAAAAAAAAAAAAAAAAAAAAAAAAAAAAAAAAAAAAAAAAAAAAAAAAAAAAAAAAAAAAAAAAAAAAAAAAAAAAAAAAAAAAAAAAAAAAAAAAAAAAAAAAAAAAAAAAAAAAAAAAAAAAAAAAAAAAAAAAAAAAAAAAAAAAAAAAAAAAAAAAAAAAAAAAAAAAAAAAAAAAAAAAAAAAAAAAAAAAAAAAAAAAAAAAAAAAAAAAAAAAAAAAAAAAAAAAAAAAAAAAAAAAAAAAAAAAAAAAAAAAAAAAAAAAAAAAAAAAAAAAAAAAAAAAAAAAAAAAAAAAAAAAAAAAAAAAAAAAAAAAAAAAAAAAAAAAAAAAAAAAAAAAAAAAAAAAAAAAAAAAAAAAAAAAAAAAAAAAAAAAAAAAAAAAAAAAAAAAAAAAAAAAAAAAAAAAAAAAAAAAAAAAAAAAAAAAAAAAAAAAAAAAAAAAAAAAAAAAAAAAAAAAAAAAAAAAAAAAAAAAAAAAAAAAAAAAAAAAAAAAAAAAAAAAAAAAAAAAAAAAAAAAAAAAAAAAAAAAAAAAAAAAAAAAAAAAAAAAAAAAAAAAAAAAAAAAAAAAAAAAAAAAAAAAAAAAAAAAAAAAAAAAAAAAAAAAAAAAAAAAAAAAAAAAAAAAAAAAAAAAAAAAAAAAAAAAAAAAAAAAAAAAAAAAAAAAAAAAAAAAAAAAAAAAAAAAAAAAAAAAAAAAAAAAAAAAAAAAAAAAAAAAAAAAAAAAAAAAAAAAAAAAAAAAAAAAAAAAAAAAAAAAAAAAAAAAAAAAAAAAAAAAAAAAAAAAAAAAAAAAAAAAAAAAAAAAAAAAAAAAAAAAAAAAAAAAAAAAAAAAAAAAAAAAAAAAAAAAAAAAAAAAAAAAAAAAAAAAAAAAAAAAAAAAAAAAAAAAAAAAAAAAAAAAAAAAAAAAAAAAAAAAAAAAAAAAAAAAAAAAAAAAAAAAAAAAAAAAAAAAAAAAAAAAAAAAAAAAAAAAAAAAAAAAAAAAAAAAAAAAAAAAAAAAAAAAAAAAAAAAAAAAAAAAAAAAAAAAAAAAAAAAAAAAAAAAAAAAAAAAAAAAAAAAAAAAAAAAAAAAAAAAAAAAAAAAAAAAAAAAAAAAAAAAAAAAAAAAAAAAAAAAAAAAAAAAAAAAAAAAAAAAAAAAAAAAAAAAAAAAAAAAAAAAAAAAAAAAAAAAAAAAAAAAAAAAAAAAAAAAAAAAAAAAAAAAAAAAAAAAAAAAAAAAAAAAAAAAAAAAAAAAAAAAAAAAAAAAAAAAAAAAAAAAAAAAAAAAAAAAAAAAAAAAAAAAAAAAAAAAAAAAAAAAAAAAAAAAAAAAAAAAAAAAAAAAAAAAAAAAAAAAAAAAAAAAAAAAAAAAAAAAAAAAAAAAAAAAAAAAAAAAAAAAAAAAAAAAAAAAAAAAAAAAAAAAAAAAAAAAAAAAAAAAAAAAAAAAAAAAAAAAAAAAAAAAAAAAAAAAAAAAAAAAAAAAAAAAAAAAAAAAAAAAAAAAAAAAAAAAAAAAAAAAAAAAAAAAAAAAAAAAAAAAAAAAAAAAAAAAAAAAAAAAAAAAAAAAAAAAAAAAAAAAAAAAAAAAAAAAAAAAAAAAAAAAAAAAAAAAAAAAAAAAAAAAAAAAAAAAAAAAAAAAAAAAAAAAAAAAAAAAAAAAAAAAAAAAAAAAAAAAAAAAAAAAAAAAAAAAAAAAAAAAAAAAAAAAAAAAAAAAAAAAAAAAAAAAAAAAAAAAAAAAAAAAAAAAAAAAAAAAAAAAAAAAAAAAAAAAAAAAAAAAAAAAAAAAAAAAAAAAAAAAAAAAAAAAAAAAAAAAAAAAAAAAAAAAAAAAAAAAAAAAAAAAAAAAAAAAAAAAAAAAAAAAAAAAAAAAAAAAAAAAAAAAAAAAAAAAAAAAAAAAAAAAAAAAAAAAAAAAAAAAAAAAAAAAAAAAAAAAAAAAAAAAAAAAAAAAAAAAAAAAAAAAAAAAAAAAAAAAAAAAAAAAAAAAAAAAAAAAAAAAAAAAAAAAAAAAAAAAAAAAAAAAAAAAAAAAAAAAAAAAAAAAAAAAAAAAAAAAAAAAAAAAAAAAAAAAAAAAAAAAAAAAAAAAAAAAAAAAAAAAAAAAAAAAAAAAAAAAAAAAAAAAAAAAAAAAAAAAAAAAAAAAAAAAAAAAAAAAAAAAAAAAAAAAAAAAAAAAAAAAAAAAAAAAAAAAAAAAAAAAAAAAAAAAAAAAAAAAAAAAAAAAAAAAAAAAAAAAAAAAAAAAAAAAAAAAAAAAAAAAAAAAAAAAAAAAAAAAAAAAAAAAAAAAAAAAAAAAAAAAAAAAAAAAAAAAAAAAAAAAAAAAAAAAAAAAAAAAAAAAAAAAAAAAAAAAAAAAAAAAAAAAAAAAAAAAAAAAAAAAAAAAAAAAAAAAAAAAAAAAAAAAAAAAAAAAAAAAAAAAAAAAAAAAAAAAAAAAAAAAAAAAAAAAAAAAAAAAAAAAAAAAAAAAAAAAAAAAAAAAAAAAAAAAAAAAAAAAAAAAAAAAAAAAAAAAAAAAAAAAAAAAAAAAAAAAAAAAAAAAAAAAAAAAAAAAAAAAAAAAAAAAAAAAAAAAAAAAAAAAAAAAAAAAAAAAAAAAAAAAAAAAAAAAAAAAAAAAAAAAAAAAAAAAAAAAAAAAAAAAAAAAAAAAAAAAAAAAAAAAAAAAAAAAAAAAAAAAAAAAAAAAAAAAAAAAAAAAAAAAAAAAAAAAAAAAAAAAAAAAAAAAAAAAAAAAAAAAAAAAAAAAAAAAAAAAAAAAAAAAAAAAAAAAAAAAAAAAAAAAAAAAAAAAAAAAAAAAAAAAAAAAAAAAAAAAAAAAAAAAAAAAAAAAAAAAAAAAAAAAAAAAAAAAAAAAAAAAAAAAAAAAAAAAAAAAAAAAAAAAAAAAAAAAAAAAAAAAAAAAAAAAAAAAAAAAAAAAAAAAAAAAAAAAAAAAAAAAAAAAAAAAAAAAAAAAAAAAAAAAAAAAAAAAAAAAAAAAAAAAAAAAAAAAAAAAAAAAAAAAAAAAAAAAAAAAAAAAAAAAAAAAAAAAAAAAAAAAAAAAAAAAAAAAAAAAAAAAAAAAAAAAAAAAAAAAAAAAAAAAAAAAAAAAAAAAAAAAAAAAAAAAAAAAAAAAAAAAAAAAAAAAAAAAAAAAAAAAAAAAAAAAAAAAAAAAAAAAAAAAAAAAAAAPZYQLIne5I526h2A5/67urfkZY6KAmDgU6E9ZB3eeemQtxHFCaf/2TrOUUbRqDHBh7EEbYOTo2vY1yWR24rexjv6fE=</c2pa:manifest></metadata><svg x="0" y="0" width="86" height="86" viewBox="0 0 850.394 850.394" preserveAspectRatio="xMidYMid meet"><path d="M302.09 118.66a31.16 31.16 0 0 1 4.03 15.33v139.86h-.45c-8.57 7.87-45.62 13.8-90.03 13.8-50.76 0-91.9-7.74-91.9-17.29h-.38l-.04-18.47v-117.9c0-6.6 2.07-12.74 5.62-17.87l.01.01c4.63 7.92 38.26 15.73 86.17 15.73 41.9 0 78.18-6.89 86.29-14.33.24.37.46.75.68 1.13z" fill="#a3d9ff"></path><path d="M301.41 117.53c-8.11 7.44-44.39 14.33-86.29 14.33-47.91 0-81.54-7.81-86.17-15.73l-.01-.01c6.16-8.88 16.76-14.74 28.81-14.74H271.7c12.67 0 23.75 6.49 29.71 16.15z" fill="#a3d9ff"></path><path d="M663.01 262.5l-5.939 11.6-11.57-1.6 9.77 5.14-5.71 11.15-10.811-.79 9.06 4.2-5.68 11.12-9.38-.57s3.4.82 8.47 2.35l-9.67 18.89-28.89 54.38 29.74 18.91 38.42-78.86.109-1.23c-9.6-5.52-21.729-9.68-29.71-12.09l.91-1.78 34.08 2.06-28.4-13.18 1.75-3.41 31.28 2.3-25.57-13.45 1.801-3.54 35.39 4.9-.4-8.6-18.14-8.57-8.51-4.02-2.4 4.69zm-60.63-52.33c.71.54 1.521 1.06 2.44 1.54-.84-.57-1.65-1.08-2.44-1.54zm5.2-84.16c1.01-10.46-4.59-27.41-4.5-37.4 23.189-23.19 26.39-30.13 71.65-30.13 17.77 0 39.38 9.76 53.81 17.31.29 6.21.54 5.04.54 11.32 0 17.78-.12 44.35-30.33 43.55-10.21-.27-20.77-3.17-31.17-5.36 0 8.21-.76 18.52-1.2 27.81h.04c23.17-.91 77.71-1.98 94.18 14.49 17.4 17.4-1.529 155-1.529 155C749.22 375.69 746 467 711 444c-2.5-2.5-4.77-4.82-6.82-7-49 11.67-112.18 6-138.18-7 5.42-14.37.65-69.08-3.89-82.1-10.801-31.04-6.69-76.76-6.69-76.76 1.7-40.45-18.06-93.08-38.689-126.52-12.12-19.65-16.94-37.96-30.381-56.01 5.75-16.32 33.23-33.6 70.23-19.5 10.71 18.97 18.8 30.29 35.53 43.35 4.9 3.83 10.29 8.4 15.47 13.55z" fill="#ffeec8" class="aac-skin-fill"></path><path d="M306.12 273.85v448.44c0 29.3-40.7 53.04-90.9 53.04-50.22 0-90.92-23.74-90.92-53.04h-.01l-.93-451.93h.38c0 9.55 41.14 17.29 91.9 17.29 44.41 0 81.46-5.93 90.03-13.8h.45zM670.93 317.19l-.109 1.23-38.42 78.86-29.74-18.91 28.89-54.38 9.67-18.89c7.979 2.41 20.109 6.57 29.709 12.09zM680.84 291.09l-31.28-2.3 5.71-11.15z" fill="#0b00ea"></path><path fill="#ffeec8" d="M657.07 274.1l-1.8 3.54-9.77-5.14z" class="aac-skin-fill"></path><path fill="#0b00ea" d="M676.21 305.38l-34.08-2.06 5.68-11.12z"></path><path fill="#ffeec8" d="M649.56 288.79l-1.75 3.41-9.06-4.2z" class="aac-skin-fill"></path><path fill="#0b00ea" d="M692.06 270.4l.4 8.6-35.39-4.9 5.94-11.6 2.4-4.69 8.51 4.02z"></path><g fill="none" stroke="#000"><path stroke-width="19.17" d="M306.12 726.84V256.46M123.32 251.89l.04 18.47.93 451.93.01 3.58"></path><path d="M306.12 722.29c0 29.3-40.7 53.04-90.9 53.04-50.22 0-90.92-23.74-90.92-53.04M302.09 118.66a31.16 31.16 0 0 1 4.03 15.33v122.47M123.32 256.46V133.99c0-6.6 2.07-12.74 5.62-17.87 6.16-8.88 16.76-14.74 28.81-14.74H271.7c12.67 0 23.75 6.49 29.71 16.15.24.37.46.75.68 1.13" stroke-width="19.17"></path><path d="M301.42 117.52l-.01.01c-8.11 7.44-44.39 14.33-86.29 14.33-47.91 0-81.54-7.81-86.17-15.73M305.67 273.85c-8.57 7.87-45.62 13.8-90.03 13.8-50.76 0-91.9-7.74-91.9-17.29" stroke-width="19.17"></path><path stroke-width="2" d="M648.88 252.38l-34.34-43.24M638.97 257.13L594 245.69"></path><path d="M602.38 210.17c-15.93-9.32-21.91 2.95-13.58 16.12-16.18-10.53-23.649 5.92-8.22 15.31M602.38 210.17c.71.54 1.521 1.06 2.44 1.54-.84-.57-1.65-1.08-2.44-1.54zM616.58 198.1c-11.76-11.75-25.63 3.37-14.2 12.07" stroke-width="5"></path><path d="M566 430c5.42-14.37.65-69.08-3.89-82.1-10.801-31.04-6.69-76.76-6.69-76.76 1.7-40.45-18.06-93.08-38.689-126.52-12.12-19.65-16.94-37.96-30.381-56.01M631.58 172.6c.74-17.14-10.97-33.66-24-46.59-5.18-5.15-10.57-9.72-15.47-13.55-16.73-13.06-24.82-24.38-35.53-43.35M666.08 163.6c0-3.2.12-6.76.3-10.49.44-9.29 1.2-19.6 1.2-27.81" stroke-width="12"></path><path d="M705.08 89.27c8.17-3.98 14.76-2.49 24-2.16 0 17.78-.12 44.35-30.33 43.55-10.21-.27-20.77-3.17-31.17-5.36-8.19-1.72-16.28-3-24-2.19M728 232c0 31.99-7.79 30.51-7.79 95.35" stroke-width="12"></path><path d="M670.82 318.42l-38.42 78.86-29.74-18.91 28.89-54.38 9.67-18.89.91-1.78 5.68-11.12 1.75-3.41 5.71-11.15 1.801-3.54 5.939-11.6 2.4-4.69 8.51 4.02 18.14 8.57.4 8.6-35.39-4.9-11.57-1.6 9.77 5.14 25.57 13.45-31.28-2.3-10.81-.79 9.06 4.2 28.4 13.18-34.08-2.06-9.38-.57s3.4.82 8.47 2.35c7.98 2.41 20.11 6.57 29.71 12.09 7.15 4.11 12.9 8.96 14.521 14.39 2.72 9.11.06 46.86.05 56.39-.02 23.97 3.49 32.89 18.68 49.03 2.051 2.18 4.32 4.5 6.82 7 35 23 38.22-68.31 48.07-121.4 0 0 18.93-137.6 1.529-155-16.47-16.47-71.01-15.4-94.18-14.49" stroke-width="12"></path><path d="M673.92 261.83c7.28-14.63 17.35-12.49 23.64-10.31 11.601 18.27 18.73 47.94 22.65 75.83v.01c2.85 20.25 4 39.57 3.94 52.91M607.58 126.02v-.01c1.01-10.46-4.59-27.41-4.5-37.4" stroke-width="12"></path><path stroke-width="6" d="M653.25 258.5l9.76 4"></path><path stroke-width="2" d="M633.78 245.21L607.7 222.4M627.91 248.47l-28.68-13.69"></path></g><path fill="none" d="M0 0h850.394v850.394H0z"></path></svg><circle cx="83" cy="84" r="15" fill="#17395c" stroke="#fff" stroke-width="2.5"></circle><path d="M83 74 L91 83 H86.5 V93 H79.5 V83 H75 Z" fill="#fff"></path></svg>