<svg xmlns="http://www.w3.org/2000/svg"><symbol id="ordenador" viewBox="0 0 850.394 850.394"><path fill="#ffeec8" d="M356.97 373.83h150.18v56.29H356.97z"/><path d="M771.8 742.56c2.59 20.46-10.08 22.45-22.45 22.45H116.78c-12.38 0-24.95-1.99-22.36-22.45l21.06-81.63c3.19-15.56 10.08-22.35 22.35-22.35h590.46c12.38 0 19.26 6.79 22.45 22.35l21.06 81.63zM771.6 765.01v44.81H94.92v-44.81H749.35z" fill="#787878"/><path d="M699.75 430.12v179.81H164.38V430.12h535.37zm-46.4 135.31v-29.64H488.39v29.64h164.96zm0-66.16v-29.64H550.66v29.64h102.69z" fill="#ffeec8"/><path fill="#c8c8c8" d="M488.39 535.79h164.96v29.64H488.39zM550.66 469.63h102.689v29.64H550.66z"/><path d="M602.75 324.74c6.09 0 10.88 4.88 10.88 10.87 0 5.99-4.79 10.88-10.88 10.88-5.98 0-10.78-4.89-10.78-10.88 0-5.99 4.8-10.87 10.78-10.87z" fill="#00e800"/><path fill="#00efdc" d="M261.57 80.45h340.99v228.32H261.57z"/><path d="M614.52 42.93c14.78 0 26.66 11.88 26.66 26.54v265.85c0 14.76-11.88 26.64-26.66 26.64H248.6c-14.67 0-26.64-11.88-26.64-26.64V69.47c0-14.66 11.97-26.54 26.64-26.54h365.92zm-25.34 292.88c0-5.99-4.89-10.87-10.88-10.87-5.979 0-10.87 4.88-10.87 10.87 0 5.99 4.891 10.88 10.87 10.88 5.99 0 10.88-4.89 10.88-10.88zm2.79-.2c0 5.99 4.8 10.88 10.78 10.88 6.09 0 10.88-4.89 10.88-10.88 0-5.99-4.79-10.87-10.88-10.87-5.98 0-10.78 4.88-10.78 10.87zm10.59-26.84V80.45H261.57v228.32h340.99z" fill="#ffeec8"/><path d="M578.3 324.94c5.99 0 10.88 4.88 10.88 10.87 0 5.99-4.89 10.88-10.88 10.88-5.979 0-10.87-4.89-10.87-10.88 0-5.99 4.89-10.87 10.87-10.87z" fill="#00e800"/><g fill="none" stroke="#000" stroke-width="23.708"><path d="M641.18 335.32c0 14.76-11.88 26.64-26.66 26.64H248.6c-14.67 0-26.64-11.88-26.64-26.64V69.47c0-14.66 11.97-26.54 26.64-26.54h365.92c14.78 0 26.66 11.88 26.66 26.54v265.85z"/><path d="M261.57 80.45h340.99v228.32H261.57zM356.97 430.12v-56.29h150.18v56.29M507.15 430.12h192.6v179.81H164.38V430.12h192.59z"/><path d="M488.39 535.79h164.96v29.64H488.39zM550.66 469.63h102.689v29.64H550.66zM116.78 765.01c-12.38 0-24.95-1.99-22.36-22.45l21.06-81.63c3.19-15.56 10.08-22.35 22.35-22.35h571M749.35 765.01c12.37 0 25.04-1.99 22.45-22.45l-21.06-81.63c-3.19-15.56-10.07-22.35-22.45-22.35h-19.46"/><path stroke-dasharray="23.708" d="M159.79 672.11h546.54M159.79 703.74h546.54M586.19 738.67H722.2"/><path d="M287.81 738.67h282.61"/><path stroke-dasharray="23.708" d="M159.79 738.67h128.02"/><path d="M749.35 765.01h22.25v44.81H94.92v-44.81H724z"/></g><path fill="none" d="M0 0h850.394v850.394H0z"/></symbol><symbol id="leer" viewBox="0 0 850 850"><style>.st0{fill:#ffeec8}.st1{fill:#ed1d31}.st2{fill:#a9d7f3}.st3,.st4{fill:none;stroke:#231f20;stroke-width:15.25;stroke-linecap:round;stroke-miterlimit:10}.st4{stroke-width:15}</style><path class="st0" d="M659.9 548.1l-1-2.7-.3-2.5-.2-2.3.2-2 .8-1.7.7-1.8 1-1.5 1.3-1 1.2-1 1.3-.7 1.5-.5h2.5l1 .5 1 .7.7 1 .8 1.3 1.7 3.2 2.5 3.5 6 8.3 6 8.5 5.5 7.7 1 2.5 1 3.3 1 4.5.8 5 .5 6 .5 6.2.7 13.8v14.2l-.2 13.8-.5 6.2-.5 6-.5 5.3-1 4.5-.8 3.2-1.2 3-1.3 2.5-1.7 2.3-1.8 2-1.7 1.7-1.8 1.3-2 1-1.7 1-1.8.5-3 1-2 .2-.7.3-4.5-.8-11.8-2.5-13-3-6.7-1.7-7-2-6.8-2.3-6.2-2.5-5.8-2.5-2.2-1.5-2.3-1.2-5.7-4-6.3-3.8-13-8-6.2-3.7-5.5-3.8-4.5-3.2-2-1.8-1.5-1.5-1.3-1.2-.7-1.3-.3-1.2v-1l1.5-3 1-2.3 1.3-1.5 1-.7 1.5-.3h1.5l4.7.3-15.7-8.8-3.3-1.7-2.5-1.8-1.7-1.5-1.3-1.2-.7-1.5-.5-1.5-.8-3.3.5-1.5.8-1.5 1.2-1.5 1.3-1.5 1.5-1.2 1-.3 1-.2h1l1.2.2 2.5 1-3.2-2-3-1.7-2.5-2-2-2-1.5-2-1-2.3-.5-2.2-.3-2.8.8-1.5.7-1.7 1-1.8 1.5-1.7.8-.8 1-.5.7-.2 1-.3h1.3l1 .5 11.7 5.3-2-1.3-1.2-1.5-1.3-1.7-.5-1.8-.5-2v-2l.3-1.7.5-1.8 1-1.7 1-1.5 1.2-1.3 1.3-1 1.5-.5 1.7-.5 1.8.3 1.7.5 15.5 7.5 29.3 13.2 16 7.3 14.7 6.2 7.5 3 6.5 2.5 4.8 1.5 1.7.3 1.3.2h.7l.8-.7.5-1.3.5-1.5.2-2-.2-2v-2.5l-.5-2.5-.8-2.7-.7-3-1-3-1.3-3.3-1.5-3-1.7-3-1.8-3-2.2-3-2.3-2.7z"/><path class="st1" d="M673.4 520.6l-1 13.3-.8-1.3-.7-1-1-.7-1-.5h-2.5l-1.5.5-1.3.7-1.2 1-1.3 1-1 1.5-.7 1.8-.8 1.7-.2 2 .2 2.3.3 2.5 1 2.7.2 1.8 2.3 2.7 2.2 3 1.8 3 1.7 3 1.5 3 1.3 3.3 1 3 .7 3 .8 2.7.5 2.5v2.5l.2 2-.2 2-.5 1.5-.5 1.3-.8.7h-.7l-1.3-.2-1.7-.3-4.8-1.5-6.5-2.5-7.5-3-14.7-6.2-16-7.3-29.3-13.2-15.5-7.5-1.7-.5-1.8-.3-1.7.5-1.5.5-1.3 1-1.2 1.3-1 1.5-1 1.7-.5 1.8-.3 1.7v2l.5 2 .5 1.8 1.3 1.7 1.2 1.5 2 1.3-11.7-5.3-1-.5h-1.3l-1 .3-.7.2-1 .5-.8.8-1.5 1.7-1 1.8-.7 1.7-.8 1.5.3 2.8.5 2.2 1 2.3 1.5 2 2 2 2.5 2 3 1.7 3.2 2-2.5-1-1.2-.2h-1l-1 .2-1 .3-1.5 1.2-1.3 1.5-1.2 1.5-.8 1.5-.5 1.5.8 3.3.5 1.5.7 1.5 1.3 1.2 1.7 1.5 2.5 1.8 3.3 1.7 15.7 8.8-4.7-.3h-1.5l-1.5.3-1 .7-1.3 1.5-1 2.3-1.5 3v1l.3 1.2.7 1.3 1.3 1.2 1.5 1.5 2 1.8 4.5 3.2 5.5 3.8 6.2 3.7 13 8 6.3 3.8 5.7 4 2.3 1.2 2.2 1.5 5.8 2.5 6.2 2.5 6.8 2.3 7 2 6.7 1.7 13 3-.2.3-7.5 12-45.8 19.2-156.5 66.5-2.2 1-2.3.8-2.2.2h-2l-2-.2-1.8-.5-1.7-.8-1.5-1-1.5-1.5-1.3-1.5-1-1.7-1-2-.7-2.3-.5-2.2-.3-2.8-.2-2.7V441.1l.2-3 .3-3 .5-2.7.7-3 1-2.8 1-3 1.3-2.7 1.5-2.5 1.5-2.8 1.7-2.2 1.8-2.3 2-2.2 2-1.8 2.2-1.7 2.3-1.5 2.2-1.3 94.3-40 108-46 2.2-.7 2.3-.8 2-.2h2l2 .2 1.7.5 1.8.8 1.5 1 1.5 1.2 1.2 1.8 1 1.7 1 2 .8 2 .5 2.5.5 2.8v2.7z"/><path class="st0" d="M489.1 301.1l-3.5 3-3.2 3-3.5 2.5-3.5 2.5-3.8 2.5-3.7 2.3-3.8 2-4 1.7-3.7 1.5-4 1.5-4.3 1.3-4 1-4.2.7-4.3.5-4.2.3-4.5.2-4.5-.2-4.5-.3-4.5-.7-4.5-.8-4.3-1.2-4.5-1.3-4-1.5-4.2-1.7-4-2-4-2.3-4-2.5-3.8-2.5-3.7-2.7-3.5-3-3.5-3.3-3.3-3.2-4.2-4.8-4.3-4.7-3.7-5.3-3.5-5.5-3.5-5.5-3-6-3-6.2-2.5-6.3-2.3-6.5-2.2-6.7-1.8-7-1.5-7-1-7.3-1-7.5-.5-7.5v-14.2l.5-6.5.5-6.8 1-6.2 1.3-6.3 1.2-6.2 1.8-6 1.7-6 2-5.8 2.3-5.7 2.5-5.5 2.7-5.3 2.8-5 3.2-5 3.3-4.7 3.2-4.5 3.5-4.3 3.8-4.2 4-3.8 4-3.7 4.2-3.3 4.3-3.2 4.5-2.8 4.5-2.7 4.7-2.3 4.8-2 4.7-1.7 5-1.5 5-1.3 5.3-.7 5.2-.5 5.3-.3 5.2.3 5.3.5 5.2.7 5 1.3 5 1.5 4.8 1.7 5 2 4.5 2.3 4.5 2.7 4.5 2.8 4.2 3.2 4.3 3.3 4 3.7 4 3.8 3.7 4.2 3.5 4.3 3.5 4.5 3.3 4.7 3 5 2.7 5 2.8 5.3 2.5 5.5 2.2 5.7 2 5.8 2 6 1.5 6 1.5 6.2 1 6.3 1 6.2.5 6.8.5 6.5.3 6.7-.3 8-.5 7.8-1 7.5-1.2 7.5-1.5 7.2-2 7.3-2.3 7-2.5 6.7-2.7 6.5-3 6.3-3.5 6-3.5 6-4 5.5-4 5.2-4.3 4.8z"/><path class="st2" d="M449.1 402.6l-2.2 1.3-2.3 1.5-2.2 1.7-2 1.8-2 2.2-1.8 2.3-1.7 2.2-1.5 2.8-1.5 2.5-1.3 2.7-1 3-1 2.8-.7 3-.5 2.7-.3 3-.2 3v312.8h-3.5V438.1l-.3-3-.7-2.7-.8-3-.7-2.8-1.3-3-1.2-2.7-1.5-2.5-1.5-2.8-1.8-2.2-1.7-2.3-2-2.2-2-1.8-2-1.7-2.3-1.5-2.2-1.3-97.3-41.2.5-1 5.8-.5 5.5-1 5-1.3 4.7-1.7 4.3-1.8 4-2 3.5-2 3.2-2.5.5.3.8.2 2.7 1.5 4.3 2.3 5.7 2.7 7.3 3.3 8.5 3.2 4.5 1.8 5 1.5 5.2 1.2 5.5 1.3 5.8 1.2 6 .8 6.2.7 6.3.5h6.7l6.8-.2 7-.5 7-.8 7.2-1.5 7.5-1.7 7.5-2.3 7.8-2.7 7.7-3.5 8-3.8 8-4.5 8-5.2 3.3 3 3.5 3 4.2 2.7 4.5 2.3 4.8 2.2 5.5 1.8 6.2 1.5 6.5 1 .8 1.7z"/><path class="st2" d="M426.9 753.9l.2 2.7.3 2.8.5 2.2.7 2.3 1 2 1 1.7 1.3 1.5 1.5 1.5 1.5 1 1.7.8 1.8.5 2 .2h2l2.2-.2 2.3-.8 2.2-1 156.5-66.5v80.5l-360-1.5v-80.5l155.8 68 2.2 1 2.3.8 2 .2h2l2-.2 1.7-.5 1.8-.8 1.5-1 1.5-1.5 1.2-1.5 1.3-1.7.7-2 .8-2.3.7-2.2.3-2.8v-2.7z"/><path class="st0" d="M362.1 298.4l3.3 3.2 3.5 3.3 3.5 3 3.7 2.7 3.8 2.5 4 2.5 4 2.3 4 2 4.2 1.7 4 1.5 4.5 1.3 4.3 1.2 4.5.8 4.5.7 4.5.3 4.5.2 4.5-.2 4.2-.3 4.3-.5 4.2-.7 4-1 4.3-1.3 4-1.5 3.7-1.5 4-1.7 3.8-2 3.7-2.3 3.8-2.5 3.5-2.5 3.5-2.5 3.2-3 3.5-3-.2 2.5.2 4 .8 5 1 5.5.7 3.3 1 3 1.3 3.2 1.5 3.3 1.7 3.2 2 3 2.5 3.3 2.5 3-8 5.2-8 4.5-8 3.8-7.7 3.5-7.8 2.7-7.5 2.3-7.5 1.7-7.2 1.5-7 .8-7 .5-6.8.2h-6.7l-6.3-.5-6.2-.7-6-.8-5.8-1.2-5.5-1.3-5.2-1.2-5-1.5-4.5-1.8-8.5-3.2-7.3-3.3-5.7-2.7-4.3-2.3-2.7-1.5-.8-.2-.5-.3 4-3.5 3.5-3.7 2.8-4 2.5-4 2-4 1.7-4 1.3-4 1-3.8.7-3.5.5-3.2.5-5.5v-5zM276.1 549.4l1.8-.8h1.7l1.8.3 1.5.7 1.5.8 1 1.2 1.2 1.5.8 1.8.5 1.7.2 2v1.8l-.2 2-.8 1.7-1 1.8-1.5 1.5-2 1.5 11.8-5.5 1.2-.3 1-.2 1 .2.8.3 1 .7.7.5 1.5 1.8 1 1.7 1 1.8.5 1.7-.2 2.5-.5 2.3-1 2.2-1.5 2.3-2 1.7-2.5 2-2.8 2-3.5 1.8 2.5-1 1.3-.3h1l1 .3 1 .2 1.5 1.3 1.5 1.5 1 1.5.7 1.5.5 1.5-.7 3.2-.5 1.5-.8 1.5-1.2 1.5-1.8 1.5-2.5 1.5-3.2 2-15.8 8.5 4.8-.2h1.5l1.5.5 1 .7 1.2 1.5 1.3 2 1.2 3.3v1l-.2 1-.8 1.2-1.2 1.5-1.5 1.5-1.8 1.5-4.7 3.5-5.5 3.5-6 4-13 7.8-6.3 4-5.7 3.7-2.3 1.3-2.2 1.5-5.3 2.5-6 2.2-6.2 2.3-6.5 1.7-6.8 2-12.5 3-13.2 2.5-5.5 1h-.8l-2-.5-3-.7-1.7-.8-1.8-.7-2-1.3-1.7-1.2-1.8-1.8-1.7-1.7-1.5-2.3-1.5-2.5-1.3-3-.7-3.5-.8-4.5-.7-5.2-.5-5.8-.5-6.5-.3-13.7v-14.3l.8-13.7.5-6.3.5-5.7.7-5.3 1-4.2 1-3.5 1-2.5 5.3-7.3 5.7-8 5.8-8 2.5-3.7 2-3 1.5-2.5.5-1 1-.8 1-.2 1.2-.3 1.5.3 1.3.5 1.2.5 1.5 1 1 1.2 1 1.3 1 1.7.5 1.8.3 2.2v2.3l-.5 2.5-1 2.7-.3 1.8-2.2 2.7-2.3 2.8-1.7 3-1.8 3-1.5 3.2-1.2 3-1 3-.8 3-.7 2.8-.3 2.7-.2 2.3v4l.5 1.5.5 1.2.7.8h2l1.8-.5 5-1.5 6.2-2.5 7.5-3 15-6.3 15.8-7 29.2-13.5z"/><path class="st1" d="M282.6 568.9l2-1.5 1.5-1.5 1-1.8.8-1.7.2-2v-1.8l-.2-2-.5-1.7-.8-1.8-1.2-1.5-1-1.2-1.5-.8-1.5-.7-1.8-.3h-1.7l-1.8.8-15.5 7.2-29.2 13.5-15.8 7-15 6.3-7.5 3-6.2 2.5-5 1.5-1.8.5h-2l-.7-.8-.5-1.2-.5-1.5v-4l.2-2.3.3-2.7.7-2.8.8-3 1-3 1.2-3 1.5-3.2 1.8-3 1.7-3 2.3-2.8 2.2-2.7.3-1.8 1-2.7.5-2.5v-2.3l-.3-2.2-.5-1.8-1-1.7-1-1.3-1-1.2-1.5-1-1.2-.5-1.3-.5-1.5-.3-1.2.3-1 .2-1 .8-.5 1-1.5 2.5-.5-.5V334.1l.2-2.7.3-2.8.5-2.5.7-2 1-2 1.3-1.7 1.2-1.8 1.3-1.2 1.7-1 1.5-.8 2-.5 1.8-.2h2.2l2 .2 2.3.8 2.2.7 105 44.8 97.3 41.2 2.2 1.3 2.3 1.5 2 1.7 2 1.8 2 2.2 1.7 2.3 1.8 2.2 1.5 2.8 1.5 2.5 1.2 2.7 1.3 3 .7 2.8.8 3 .7 2.7.3 3v318.5l-.3 2.8-.7 2.2-.8 2.3-.7 2-1.3 1.7-1.2 1.5-1.5 1.5-1.5 1-1.8.8-1.7.5-2 .2h-2l-2-.2-2.3-.8-2.2-1-155.8-68-48-21-3.7-7-.3-.5 12.5-3 6.8-2 6.5-1.7 6.2-2.3 6-2.2 5.3-2.5 2.2-1.5 2.3-1.3 5.7-3.7 6.3-4 13-7.8 6-4 5.5-3.5 4.7-3.5 1.8-1.5 1.5-1.5 1.2-1.5.8-1.2.2-1v-1l-1.2-3.3-1.3-2-1.2-1.5-1-.7-1.5-.5h-1.5l-4.8.2 15.8-8.5 3.2-2 2.5-1.5 1.8-1.5 1.2-1.5.8-1.5.5-1.5.7-3.2-.5-1.5-.7-1.5-1-1.5-1.5-1.5-1.5-1.3-1-.2-1-.3h-1l-1.3.3-2.5 1 3.5-1.8 2.8-2 2.5-2 2-1.7 1.5-2.3 1-2.2.5-2.3.2-2.5-.5-1.7-1-1.8-1-1.7-1.5-1.8-.7-.5-1-.7-.8-.3-1-.2-1 .2-1.2.3z"/><path class="st3" d="M672.1 535.4l.3-1.5 1-13.3V331.4l-.5-2.8-.5-2.5-.8-2-1-2-1-1.7-1.2-1.8-1.5-1.2-1.5-1-1.8-.8-1.7-.5-2-.2h-2l-2 .2-2.3.8-2.2.7-108 46-94.3 40-2.2 1.3-2.3 1.5-2.2 1.7-2 1.8-2 2.2-1.8 2.3-1.7 2.2-1.5 2.8-1.5 2.5-1.3 2.7-1 3-1 2.8-.7 3-.5 2.7-.3 3-.2 3v312.8l.2 2.7.3 2.8.5 2.2.7 2.3 1 2 1 1.7 1.3 1.5 1.5 1.5 1.5 1 1.7.8 1.8.5 2 .2h2l2.2-.2 2.3-.8 2.2-1 156.5-66.5 45.8-19.2 7.5-12M193.9 675.1l3.7 7 48 21 155.8 68 2.2 1 2.3.8 2 .2h2l2-.2 1.7-.5 1.8-.8 1.5-1 1.5-1.5 1.2-1.5 1.3-1.7.7-2 .8-2.3.7-2.2.3-2.8V438.1l-.3-3-.7-2.7-.8-3-.7-2.8-1.3-3-1.2-2.7-1.5-2.5-1.5-2.8-1.8-2.2-1.7-2.3-2-2.2-2-1.8-2-1.7-2.3-1.5-2.2-1.3-97.3-41.2-105-44.8-2.2-.7-2.3-.8-2-.2h-2.2l-1.8.2-2 .5-1.5.8-1.7 1-1.3 1.2-1.2 1.8-1.3 1.7-1 2-.7 2-.5 2.5-.3 2.8-.2 2.7v202.3l.5.5 3 3.2M362.1 298.4l-4.2-4.8-4.3-4.7-3.7-5.3-3.5-5.5-3.5-5.5-3-6-3-6.2-2.5-6.3-2.3-6.5-2.2-6.7-1.8-7-1.5-7-1-7.3-1-7.5-.5-7.5v-14.2l.5-6.5.5-6.8 1-6.2 1.3-6.3 1.2-6.2 1.8-6 1.7-6 2-5.8 2.3-5.7 2.5-5.5 2.7-5.3 2.8-5 3.2-5 3.3-4.7 3.2-4.5 3.5-4.3 3.8-4.2 4-3.8 4-3.7 4.2-3.3 4.3-3.2 4.5-2.8 4.5-2.7 4.7-2.3 4.8-2 4.7-1.7 5-1.5 5-1.3 5.3-.7 5.2-.5 5.3-.3 5.2.3 5.3.5 5.2.7 5 1.3 5 1.5 4.8 1.7 5 2 4.5 2.3 4.5 2.7 4.5 2.8 4.2 3.2 4.3 3.3 4 3.7 4 3.8 3.7 4.2 3.5 4.3 3.5 4.5 3.3 4.7 3 5 2.7 5 2.8 5.3 2.5 5.5 2.2 5.7 2 5.8 2 6 1.5 6 1.5 6.2 1 6.3 1 6.2.5 6.8.5 6.5.3 6.7-.3 8-.5 7.8-1 7.5-1.2 7.5-1.5 7.2-2 7.3-2.3 7-2.5 6.7-2.7 6.5-3 6.3-3.5 6-3.5 6-4 5.5-4 5.2-4.3 4.8-4.5 4.7-3.5 3-3.2 3-3.5 2.5-3.5 2.5-3.8 2.5-3.7 2.3-3.8 2-4 1.7-3.7 1.5-4 1.5-4.3 1.3-4 1-4.2.7-4.3.5-4.2.3-4.5.2-4.5-.2-4.5-.3-4.5-.7-4.5-.8-4.3-1.2-4.5-1.3-4-1.5-4.2-1.7-4-2-4-2.3-4-2.5-3.8-2.5-3.7-2.7-3.5-3-3.5-3.3z"/><path class="st3" d="M260.6 556.6l15.5-7.2 1.8-.8h1.7l1.8.3 1.5.7 1.5.8 1 1.2 1.2 1.5.8 1.8.5 1.7.2 2v1.8l-.2 2-.8 1.7-1 1.8-1.5 1.5-2 1.5M200.6 583.4l15-6.3 15.8-7 29.2-13.5"/><path class="st4" d="M178.9 590.9h1.2l1.8-.5 5-1.5 6.2-2.5 7.5-3"/><path class="st3" d="M253.4 650.4l13-7.8 6-4 5.5-3.5 4.7-3.5 1.8-1.5 1.5-1.5 1.2-1.5.8-1.2.2-1v-1l-1.2-3.3-1.3-2-1.2-1.5-1-.7-1.5-.5h-1.5l-4.8.2M253.4 650.4l-6.3 4-5.7 3.7-2.3 1.3-2.2 1.5-5.3 2.5-6 2.2-6.2 2.3-6.5 1.7-6.8 2-12.5 3-13.2 2.5-5.5 1h-.8l-2-.5-3-.7-1.7-.8-1.8-.7-2-1.3-1.7-1.2-1.8-1.8-1.7-1.7-1.5-2.3-1.5-2.5-1.3-3-.7-3.5-.8-4.5-.7-5.2-.5-5.8-.5-6.5-.3-13.7v-14.3l.8-13.7.5-6.3.5-5.7.7-5.3 1-4.2 1-3.5 1-2.5 5.3-7.3 5.7-8 5.8-8 2.5-3.7 2-3 1.5-2.5.5-1 1-.8 1-.2 1.2-.3 1.5.3 1.3.5 1.2.5 1.5 1 1 1.2 1 1.3 1 1.7.5 1.8.3 2.2v2.3l-.5 2.5-1 2.7-.3 1.8-2.2 2.7-2.3 2.8-1.7 3-1.8 3-1.5 3.2-1.2 3-1 3-.8 3-.7 2.8-.3 2.7-.2 2.3v4l.5 1.5.5 1.2.7.8h.8"/><path class="st3" d="M212.1 649.9l22.3-11.8 41.2-22 15.8-8.5 3.2-2 2.5-1.5 1.8-1.5 1.2-1.5.8-1.5.5-1.5.7-3.2-.5-1.5-.7-1.5-1-1.5-1.5-1.5-1.5-1.3-1-.2-1-.3h-1l-1.3.3-2.5 1-7.2 3.2-9.8 4.8-22.5 10.7-27.5 14"/><path class="st3" d="M289.9 588.6l.2-.2 3.5-1.8 2.8-2 2.5-2 2-1.7 1.5-2.3 1-2.2.5-2.3.2-2.5-.5-1.7-1-1.8-1-1.7-1.5-1.8-.7-.5-1-.7-.8-.3-1-.2-1 .2-1.2.3-11.8 5.5-83.7 39M589.6 554.9l-15.5-7.5-1.7-.5-1.8-.3-1.7.5-1.5.5-1.3 1-1.2 1.3-1 1.5-1 1.7-.5 1.8-.3 1.7v2l.5 2 .5 1.8 1.3 1.7 1.2 1.5 2 1.3"/><path class="st4" d="M649.6 581.6l-14.7-6.2-16-7.3-29.3-13.2M671.4 589.1l-1.3-.2-1.7-.3-4.8-1.5-6.5-2.5-7.5-3"/><path class="st3" d="M597.1 648.6l-13-8-6.2-3.7-5.5-3.8-4.5-3.2-2-1.8-1.5-1.5-1.3-1.2-.7-1.3-.3-1.2v-1l1.5-3 1-2.3 1.3-1.5 1-.7 1.5-.3h1.5l4.7.3M597.1 648.6l6.3 3.8 5.7 4 2.3 1.2 2.2 1.5 5.8 2.5 6.2 2.5 6.8 2.3 7 2 6.7 1.7 13 3 11.8 2.5 4.5.8.7-.3 2-.2 3-1 1.8-.5 1.7-1 2-1 1.8-1.3 1.7-1.7 1.8-2 1.7-2.3 1.3-2.5 1.2-3 .8-3.2 1-4.5.5-5.3.5-6 .5-6.2.2-13.8v-14.2l-.7-13.8-.5-6.2-.5-6-.8-5-1-4.5-1-3.3-1-2.5-5.5-7.7-6-8.5-6-8.3-2.5-3.5-1.7-3.2-.8-1.3-.7-1-1-.7-1-.5h-2.5l-1.5.5-1.3.7-1.2 1-1.3 1-1 1.5-.7 1.8-.8 1.7-.2 2 .2 2.3.3 2.5 1 2.7.2 1.8 2.3 2.7 2.2 3 1.8 3 1.7 3 1.5 3 1.3 3.3 1 3 .7 3 .8 2.7.5 2.5v2.5l.2 2-.2 2-.5 1.5-.5 1.3-.8.7h-.7"/><path class="st3" d="M638.1 647.9l-22.2-11.5-41.3-22-15.7-8.8-3.3-1.7-2.5-1.8-1.7-1.5-1.3-1.2-.7-1.5-.5-1.5-.8-3.3.5-1.5.8-1.5 1.2-1.5 1.3-1.5 1.5-1.2 1-.3 1-.2h1l1.2.2 2.5 1 7.5 3.3 9.8 4.5 22.2 11 27.8 13.7M560.4 586.6h-.3l-3.2-2-3-1.7-2.5-2-2-2-1.5-2-1-2.3-.5-2.2-.3-2.8.8-1.5.7-1.7 1-1.8 1.5-1.7.8-.8 1-.5.7-.2 1-.3h1.3l1 .5 11.7 5.3 83.8 39M361.1 299.4v5l-.5 5.5-.5 3.2-.7 3.5-1 3.8-1.3 4-1.7 4-2 4-2.5 4-2.8 4-3.5 3.7-4 3.5-3.2 2.5-3.5 2-4 2-4.3 1.8-4.7 1.7-5 1.3-5.5 1-5.8.5M489.1 299.9v1.2l-.2 2.5.2 4 .8 5 1 5.5.7 3.3 1 3 1.3 3.2 1.5 3.3 1.7 3.2 2 3 2.5 3.3 2.5 3 3.3 3 3.5 3 4.2 2.7 4.5 2.3 4.8 2.2 5.5 1.8 6.2 1.5 6.5 1M245.6 703.4v80.2M605.6 704.1v81"/><path class="st4" d="M340.6 347.9v-.3l.5.3.8.2 2.7 1.5 4.3 2.3 5.7 2.7 7.3 3.3 8.5 3.2 4.5 1.8 5 1.5 5.2 1.2 5.5 1.3 5.8 1.2 6 .8 6.2.7 6.3.5h6.7l6.8-.2 7-.5 7-.8 7.2-1.5 7.5-1.7 7.5-2.3 7.8-2.7 7.7-3.5 8-3.8 8-4.5 8-5.2"/></symbol><symbol id="jugar" viewBox="0 0 850 850"><style>.st0{fill:#a9d7f3}.st1{fill:#ffeec8}.st2{fill:#7a7878}.st3{fill:#ffffc2}.st4{fill:#ed177f}.st5{fill:#fbee34}.st6{fill:#231f20}.st7{fill:#bd2226}.st8{fill:#33a048}.st9{fill:#fff}.st10,.st11,.st12,.st13,.st14,.st15,.st16{fill:none;stroke:#231f20;stroke-width:14;stroke-linecap:round;stroke-miterlimit:10}.st11,.st12,.st13,.st14,.st15,.st16{stroke-width:18.5}.st12,.st13,.st14,.st15,.st16{stroke-width:10}.st13,.st14,.st15,.st16{stroke-width:3}.st14,.st15,.st16{stroke-width:6.25}.st15,.st16{stroke-width:12}.st16{stroke-width:12.25}</style><path class="st0" d="M708.4 354.5l12.5 21 6.5 11 6.2 10.8 6 10.7 5.8 10.8 5 10.7 2.2 5 2 5.3 1.8 5 1.5 5 1.2 5 1 4.5.5 4.7.5 4.5-.2 4.3-.3 4.2-.7 4-1.3 4-1.7 3.8-2 3.5-2.8 3.2-3 3-3.5 3-4.2 2.5-11.3 6.3-10.7 5.2-9.8 4.5-9.2 3.3-4.8 1.5-4.2 1.2-4.3 1-4 .8-4 .5-3.7.2-3.5.3-3.3-.3-4-.5 1.5-2.2 1.3-2 .5-1.8.2-1.5-1-3.5-1.2-3.5-1.8-4.2-1-2.3-1.5-2.2-1.2-2.3-1.8-2-1.7-2-2-1.7-2.3-1.3-2.5-1.2-5-1.5-5.2-1.3-5-1-4.5-.5-7-.5h-2.8l-6.7.3-7 .5-3.3.2-3.2.5-3 .8-2.5.7-5.5 2.5-6.5 3.3-1-1-4.8-3.8-5.5-3.7-2.2-1.5-2-1-4.3-1.8-4.2-1-4-.7-6.3-.8-2.5-.2-1.5-.3-3.7-2-5.5-3.2-7-4.3-.8-.2 7.8-14.3-87.5-20.7-1.3.5-1.5-1.8-1.5-1.7-2-1.8-2.2-1.7-5-3.8-5.3-3.5 19.3 2 31.7-8.2 2 .2 4.8.5h6l2.7-.5 2.8-1 2.2-1 2-1.5 1.8-1.5 1.2-1.5.3-.7.2-1 .3-.8-.3-1-.2-.7-.5-1-1-.8-1-.7-1.3-.8-1.5-.5-1.5-.2h-1.7l-3.8.5-3.7 1-3.5 1.2-3 1-2.5 1.3-31.3 3.5-29-6.5.5-3.5 1.5-8.3 2.8-15.2 4.5-24 .7-2.8.8-2.7 2.2-5.8 3-6 3.5-6.2 3.8-6.3 4.2-6.2 4.3-6.3 4.5-5.7 8.5-10.8 7.2-8.7 7-7.8 2-3 6 2.5 6 2.3 6.3 1.5 6.2 1 6.3.5h3l3.2-.3 3.3-.2 3-.5 3.2-.5 3-1 3.5-1 3.3-1 3.2-1.5 3-1.5 3-1.8 3-1.7 2.8-2 2.7-2 2.5-2.3 2.8-2.5 2.2-2.5 2.3-2.7 2.2-2.8 2-2.7 2-3 2-3.3 14 4.5 13.5 4.3 16.3 4.5 4.5 1.5 4.2 1.5 4 1.7 4 1.8 3.8 2 3.7 2 3.8 2.2 3.2 2.5 3.5 2.5 3.3 2.5 6 5.5 5.7 6 5.5 6.3 5 6.7 5 6.8 4.5 7 4.5 7 8.5 14.5z"/><path class="st1" d="M588.9 521.8l3.2-2.5 2.3-2.3 1.2-1.7.3-1v-.5l-.5-.5-.8-.5h-3.2l-2.8.2-5.2 1.3-2.5.7-2.8 1-2.7.8-1.5.2h-1.5l-1.3-.2-1.2-.3-1.3-.5-1-.5-1.5-1.5-1-1.7-.5-1.8-.2-1.7.5-1.5.7-1 .5-.5.8-.3 3-1 3.7-1.7 9.3-4.5 6.5-3.3 5.5-2.5 2.5-.7 3-.8 3.2-.5 3.3-.2 7-.5 6.7-.3h2.8l7 .5 4.5.5 5 1 5.2 1.3 5 1.5 2.5 1.2 2.3 1.3 2 1.7 1.7 2 1.8 2 1.2 2.3 1.5 2.2 1 2.3 1.8 4.2 1.2 3.5 1 3.5-.2 1.5-.5 1.8-1.3 2-1.5 2.2-3.7 4.8-4.5 4.7-5.3 5-5.2 5-5.3 4.5-5 4-4 3-3 2-11.7 7-11 6-3.5 2.3-3.3 2-6 4.5-5.5 4-2.5 1.5-2.2 1-1.3.5-1.2.2h-1l-1-.2-1.3-.3-.7-.5-1-1-1-1-1-1.7-.8-1.5-.5-1v-1l.3-.8.5-1 1.5-2.2-9.8 5.7-4 2-1.5.5-1 .3h-1.2l-.8-.3-2-.7-.7-.8-1-2-.3-1.2v-1.5l.3-1.3.5-.5.5-.5 1.5-1.2-2.3 1.2-2 1-1.7 1-2 .3-1.5.2h-1.8l-1.2-.5-1.5-.7-.8-1-.5-1-.7-1.3-.3-1.2v-1.5l.3-1.3.5-.5.5-.5 7.2-5-1.2.5-1 .3-1 .2h-1l-1.8-.5-1.7-1-1.3-1.2-1-1.5-.5-1.8v-1.7l.3-1 .5-.8.7-1 .8-.7 9.5-6.5 16.5-11.3 1.5-.7zM297.1 505.3l-2 3.7-2 4.3-1.5 4.2-1.5 4.8-.5 2.5v2.7l.3 2.5.5 2.8.7 2.5 1 2.5 1.3 2.2 1 2.3 2.5 3.7 2.2 3.3 2.5 2.5.5.5 1 .5 2.3.5h6.2l3.8-.5 4.2-.5 9-1.5 9-2.3 8.3-2.2 6.7-2 4.5-1.8 51.5 66 1.5 3-9.5 4.8-10 4.5-10.2 4.5-11 4-7.3 2.5-7 2-6.5 2-6.2 1.7v-.5l-4.5-3.7-12.8-10.8-8.7-7.7-10-9.3-11-10.5-12.3-11.7-2.7-3.3-2.8-3-2.2-3-2-3.2-1.8-3-1.5-3-1.2-3-.8-3-.7-3-.5-2.8-.5-3v-5.5l.2-2.7.5-2.5.5-2.8 1.5-4.7 2-4.8 2.3-4.2 2.7-4 2.5-3.5 2.8-3 2.7-2.5 2.5-2.3 2.3-1.5 1.2-.5 1.5-.5h5.3z"/><path class="st2" d="M664.6 528l4 .5 3.3.3 3.5-.3 3.7-.2 4-.5 4-.8 4.3-1 4.2-1.2 4.8-1.5.2.7.8 4.5 1 5 1.2 6.8 1 8 1 9 .8 10 .5 10.5-.3 10.7-.2 5.5-.5 5.5-.5 5.3-1 5.5-1 5.2-1.3 5-1.7 5-1.8 4.8-2.2 4.5-2.5 4.2-2.8 4-3.2 3.5-3.5 3.3-3.8 3-7.7 4.7-7.5 4-7.8 3.5-7.7 3-7.8 2.8-7.7 2-7.8 1.7-7.7 1.3-7.8 1-7.5.5-7.5.2h-7.2l-7.3-.2-7.2-.5-6.8-.8-6.7-.7-9.5-1.5-9-1.5-8.3-2-7.7-1.8-13.3-3.2-5.5-1.3-4.5-.7-.2-1 11.7-3.3 11-3.5 10-3.2 9-3.5 8-3.5 6.8-3.3 3-1.7 2.7-1.5 2.3-1.8 2-1.7 2.5-2.3 2.2-2.5 2-2.7 1.8-2.8 1.5-2.7 1.5-3 1.2-2.8 1-3 .5-3 .8-3.2.2-3v-6l-.5-3-.5-3-.7-3 2.2-1 2.5-1.5 5.5-4 6-4.5 3.3-2 3.5-2.3 11-6 11.7-7 3-2 4-3 5-4 5.3-4.5 5.2-5 5.3-5 4.5-4.7z"/><path class="st1" d="M347.6 487.5l20.3-8.2 14.7-6 10.3-3.8 6.5-2.5.2-.2 4-1.5 1.3-.3h1l1.2.3 1 .5.8.5.7 1 .8.7.5 1.3.2 1 .3 1.2-.3 1.3-.2 1-.5 1.2-.8 1-1 1-1.2.8 8-3 1-.3 1 .3 1 .5 1 .5.7 1 .5 1 .8 1.7.2.8v1.2l-.5 1.5-.5 1.3-1 1-1.2 1.5-1.8 1.2-2.2 1.3-2.8 1.2 2-.7h1.5l1.3.2 1 .8.7 1 1.3 2 .2 1-.5 1.7-.5 1.5-1.2 1.3-2 1.5-1.8 1-1.5.7-.7.3-9.8 4.5h3l1 .2.8.3.7.5.8 1 .7 1.2.8 2v.8l-.5.7-.8 1-1 1-3 2.3-4 2.5-4.7 2.7-4.8 2.8-9.7 5-11.3 5.5-12.5 5.7-4.5 1.8-6.7 2-8.3 2.2-9 2.3-9 1.5-4.2.5-3.8.5h-6.2l-2.3-.5-1-.5-.5-.5-2.5-2.5-2.2-3.3-2.5-3.7-1-2.3-1.3-2.2-1-2.5-.7-2.5-.5-2.8-.3-2.5v-2.7l.5-2.5 1.5-4.8 1.5-4.2 2-4.3 2-3.7 2-4 2-3.3 1.8-2.7 4-5.5 4.5-5.5 2.2-2.5 2.3-2.3 2.2-2.2 2-1.5.3-.3 3-2 3.5-2 7.7-4.2 7.3-4 2.7-1.8 2-1.5.8-.5 1-.2.7.2 1 .3.8.2 1 .8.7.7.8 1 .5 1 .2 1.3.3 1.2v1.5l-.5 1.5-.5 1.5-1 1.5-1.3 1.5-2 1.8-2.5 1.7-2 1.5-4 3.8-2 2-1.2 2-.5.7-.3.8.3.7.5.5 1 .3h2l3-.5z"/><path class="st3" d="M399.6 466.5v.3l-.2.2-6.5 2.5-10.3 3.8-14.7 6-20.3 8.2-4.2 1.3-3 .5h-2l-1-.3-.5-.5-.3-.7.3-.8.5-.7 1.2-2 2-2 4-3.8 2-1.5 2.5-1.7 2-1.8 1.3-1.5 1-1.5.5-1.5.5-1.5V466l-.3-1.2-.2-1.3-.5-1-.8-1-.7-.7-1-.8-.8-.2-1-.3-.7-.2-1 .2-.8.5-2 1.5-2.7 1.8-7.3 4-7.7 4.2-3.5 2-3 2v-40.7l2 1.7 2 1.5 3.2 1.8 3.8 1.5 3.7 1.2 3.8 1 7.7 2 3.8 1 3.2 1 3.3 1.3 1.2.7 1.3.8 1 1 .7 1 .5 1 .3 1.2.2 3.3.5 2.5.5 2 .8 1.5.7 1 1 1 1.3.5 1 .5 2.2.5h2.5l2.3-.3 2.2-.5 2-1 2-1.5 1.5-1.7.5-1 .5-1 .3-1V455l2 2.3 2.5 2.5 3 2.7 1.7 1 1.5.8z"/><path class="st0" d="M580.9 515l2.5-.7 5.2-1.3 2.8-.2h3.2l.8.5.5.5v.5l-.3 1-1.2 1.7-2.3 2.3-3.2 2.5-22.5 15-1.5.7-1-1.2-14.5-12-8-6.5-2-1.5-3-2-8.5-5.3-14.8-8.2 5-9.8 16 5.8 9.5 3.5 6 2 5.3 1.7 10 3.3-.5 1.5.2 1.7.5 1.8 1 1.7 1.5 1.5 1 .5 1.3.5 1.2.3 1.3.2h1.5l1.5-.2 2.7-.8z"/><path class="st1" d="M416.6 680.5l-20 3-19.7 2.8-19.5 2.2-19.3 1.5-18.7 1.3-17.8.5-8.5.2-8.2-.2-8-.3-7.5-.5h-2l-2.3.3-5.2 1-6 1.5-3.5.7-3.8.5-4 .5-4.5.3h-4.7l-5.3-.5-5.5-.8-6-1.2-6.5-1.8-6.7-2.2-2-.8-1.8-.7-3.2-2.3-3.5-3-3-3.2-2.8-3.5-2.2-4-1.8-4-1.5-4.3-.5-2.2-.2-2-.3-2.3v-2l.3-2.2.5-2 .5-2 .7-2 1-1.8 1.3-1.7 1.2-1.8 1.8-1.7 2-1.5 2.2-1.3 2.3-1.2 2.7-1.3 3-1 3-.7 6-1.3 6.5-.7 6.3-.3h6.5l6.5.5 6 .5 6 1 5.5 1 5.2 1 8.5 2 5.5 1.8 2 .5 1 .5 2.8 1 5 1.5 3.2.5 3.8.5 4.5.2 5 .3h5.7l6.3-.5 6.7-.8 7.8-1 8.2-1.5 8.8-2 6.2-1.7 6.5-2 7-2 7.3-2.5 11-4 10.2-4.5 10-4.5 9.5-4.8 8.3-4.5 8-4.5 15.2-8.7 14.8-8.8 7.2-4 7-3.7 7-3.8 7.3-3.2 7.2-3 7.3-2.5 7.2-2.3 7.8-1.7 7.7-1.3 8-.7h6.5v1.7l.5 1.8 1 1.5 1.3 1.2 1.7 1 1.8.5h1l1-.2 1-.3 1.2-.5-7.2 5-.5.5-.5.5-.3 1.3v1.5l.3 1.2.7 1.3.5 1 .8 1 1.5.7 1.2.5h1.8l1.5-.2 2-.3 1.7-1 2-1 2.3-1.2-1.5 1.2-.5.5-.5.5-.3 1.3v1.5l.3 1.2 1 2 .7.8 2 .7.8.3h1.2l1-.3 1.5-.5 4-2 9.8-5.7-1.5 2.2-.5 1-.3.8v1l.5 1 .8 1.5 1 1.7 1 1 1 1 .7.5 1.3.3 1 .2h1l1.2-.2 1.3-.5.7 3 .5 3 .5 3v6l-.2 3-.8 3.2-.5 3-1 3-1.2 2.8-1.5 3-1.5 2.7-1.8 2.8-2 2.7-2.2 2.5-2.5 2.3-2 1.7-2.3 1.8-2.7 1.5-3 1.7-6.8 3.3-8 3.5-9 3.5-10 3.2-11 3.5-11.7 3.3-9.8 2.5-10 2.5-21.2 4.7-22.3 4.5-23 4zM581.9 497.3l1 1-9.3 4.5-3.7 1.7-3 1-.8.3-.5.5-.7 1-10-3.3-5.3-1.7-6-2-9.5-3.5-16-5.8 9.5-18.2.8.2 7 4.3 5.5 3.2 3.7 2 1.5.3 2.5.2 6.3.8 4 .7 4.2 1 4.3 1.8 2 1 2.2 1.5 5.5 3.7zM573.6 247l-2 3.3-2 3-2 2.7-2.2 2.8-2.3 2.7-2.2 2.5-2.8 2.5-2.5 2.3-2.7 2-2.8 2-3 1.7-3 1.8-3 1.5-3.2 1.5-3.3 1-3.5 1-3 1-3.2.5-3 .5-3.3.2-3.2.3h-3l-6.3-.5-6.2-1-6.3-1.5-6-2.3-6-2.5-4.5-2.5-4.5-2.7-4.2-2.8-4-3.2-4.3-3.8-3.7-3.7-3.8-4-3.5-4.3-3.5-4.5-3.2-4.7-3-5-2.8-5-2.5-5.5-2.2-5.5-2-5.8-1.8-6-1.2-5-1.3-4.7-.7-5-.5-5-.5-4.8-.3-4.7V173l.3-4.7.2-4.8.8-4.5.7-4.5.8-4.5 1.2-4.2 1.3-4.3 1.5-4.2 1.5-4 2-3.8 2-3.7 2-3.8 2.2-3.5 2.5-3.2 2.5-3.3 2.8-3 3-2.7 3-2.8 3.2-2.5 3.3-2.2 3.2-2.3 3.8-1.7 3.5-1.8 4-1.2 3.7-1.3 4-1 4-.7 4-.5 4.3-.3 4 .3 4 .2 4 .5 3.7.8 4 1 4 1 3.8 1.5 3.7 1.7 3.8 1.8 3.7 2 3.8 2.2 3.5 2.5 3.5 2.5 3.2 2.8 3.3 3 3.2 3.2 3 3.3 3 3.5 2.8 3.7 2.7 3.8 2.5 4 2.5 4 2.3 4.2 2.2 4.5 1.8 4.5 2 4.5 1.5 5 1.5 4.8 1.5 5.7 1 5.5 1 5.8.5 5.5.2 5.5v10.7l-.5 5.3-.7 5.2-1 5.3-1 5-1.5 4.7-1.5 4.8-2 4.7-2 4.3zM513.1 500.8l14.8 8.2 8.5 5.3 3 2 2 1.5 8 6.5 14.5 12 1 1.2-16.5 11.3-1-1.3-5.3-2-2.2-1-2-1.2-4-2.5-3.3-3-2.7-2.8-4.3-4.7-1.5-2-1-1-4-2-5.7-2.8-7.3-3.2-.7-.5 9.5-18.3z"/><path class="st1" d="M560.9 675.3l-.3 1.7.3 1.3.2 4.7v10.3l-.5 17.7-1 24.5-.2 4.5-.5 4.3-.5 3.7-.8 3-1.2 2.8-1.5 2.5-1.8 2-2.2 1.5-2.8 1.2-3.5 1-3.7.8-4.8.5h-1.2l-1.3-.3-1-.2-1.2-.5-1-.8-1-.7-1.8-1.8-1.5-2.5-1.5-2.7-1.2-3.3-1.3-3.5-2.2-8-2.3-8.5-2.5-9-1.5-4.5-1.7-4.2-1.8-3.5-1.7-3.3-2.5-3-2.5-2.7-2.8-2.5-3-2.3-3.2-2.2-3.3-2-3.7-1.5-3.5-1.8-4-1.2-3.8-1.3-4-1-4-1-8-1.5-7.7-1-7.5-.7-7-.3h-6.5l-10 .3-4.8.2 23-4 22.3-4.5 21.2-4.7 10-2.5 9.8-2.5.2 1 4.5.7 5.5 1.3 13.3 3.2 7.7 1.8 8.3 2 9 1.5z"/><path class="st2" d="M547.4 547.5l1 1.3-9.5 6.5-.8.7-.7 1-.5.8-.3 1h-6.5l-8 .7-7.7 1.3-7.8 1.7-7.2 2.3-7.3 2.5-7.2 3-7.3 3.2-7 3.8-7 3.7-7.2 4-14.8 8.8-15.2 8.7-8 4.5-8.3 4.5-1.5-3-51.5-66 12.5-5.7 11.3-5.5 9.7-5 4.8-2.8 4.7-2.7 4-2.5 3-2.3 1-1 .8-1 .5-.7v-.8l-.8-2-.7-1.2-.8-1-.7-.5-.8-.3-1-.2h-3l9.8-4.5.7-.3 1.5-.7 13.5 25.5.5 2.7.8 3 1 3.5 1.2 3.8 1.8 3.2 1 1.5 1 1.3 1.2 1 1.3.7 1.2.3 1.3.2 1-.2 1-.3.7-.2.8-.8.5-.5.5-1 .7-2 .3-2.2v-2.5l-.3-2.8-.5-1.2-.2-1.3-1.5-2.5-1.5-2.5-1.8-2.2-3.2-3.5-1.3-1.3-5.5-14.2 1.5-.8 43.8 11 20 18.3 9-17 .7.5 7.3 3.2 5.7 2.8 4 2 1 1 1.5 2 4.3 4.7 2.7 2.8 3.3 3 4 2.5 2 1.2 2.2 1z"/><path class="st4" d="M512.9 500.5l-9.5 18.3-9 17-20-18.3-46.3-42v-.5l1.5-.2 1.5-.8 1.3-1 1-1.2 5.7-10.8v-.2l8.5-15.8.5-1.7-.2-1.8-.5-1.5-.8-1.7 1.3-.5 87.5 20.7-7.8 14.3-9.5 18.2-5 9.8z"/><path class="st1" d="M420.6 405.3l29 6.5 31.3-3.5 2.5-1.3 3-1 3.5-1.2 3.7-1 3.8-.5h1.7l1.5.2 1.5.5 1.3.8 1 .7 1 .8.5 1 .2.7.3 1-.3.8-.2 1-.3.7-1.2 1.5-1.8 1.5-2 1.5-2.2 1-2.8 1-2.7.5h-6l-4.8-.5-2-.2-31.7 8.2-19.3-2-5.2-3.5-4.5-3.2-.8-.8-1.2-.2-2.8-.8-3.2-.5-3.8-.2-7-.3-4.5.3 1.5-1.5 1.3-1.8 1-1.5.7-1.2.3-2.3v-2l-.5-2-1-2z"/><path class="st0" d="M428.1 475.5l46.3 42-43.8-11-1.5.8-8.5-21.5-1-.5 1-1 .5-1.3.5-1.5v-1.2l-.2-.8-.8-1.7-.5-1-.7-1-1-.5-1-.5.5-1 2.7.7 2.8.5 2.5.3 2.2-.3z"/><path class="st4" d="M429.1 424l5.3 3.5 5 3.8 2.2 1.7 2 1.8 1.5 1.7 1.5 1.8.8 1.7.5 1.5.2 1.8-.5 1.7-8.5 15.8v.2l-5.7 10.8-1 1.2-1.3 1-1.5.8-1.5.2-2.2.3-2.5-.3-2.8-.5-2.7-.7-.5 1-1-.3-1 .3-8 3 1.2-.8 1-1 .8-1 .5-1.2.2-1 .3-1.3-.3-1.2-.2-1-.5-1.3-.8-.7-.7-1-.8-.5-1-.5-1.2-.3h-1l-1.3.3-4 1.5v-.3l-5-2.2-1.5-.8-1.7-1-3-2.7-2.5-2.5-2-2.3-.3-2.2-.7-2.5-.8-2.3-1.2-2.5-1.3-2-1.7-2-2-1.5-2-1 2.2-2.2.8-1.3 1-1.5.7-1.5.5-1.7.5-1.8v-1.7l.3-1.8-.3-2-.2-1.7-.5-1.8.7-.2 2.3.5h2l2.2-.3 2.3-.5 2-1 2-1 2-1.5 1.7-1.2 4.5-.3 7 .3 3.8.2 3.2.5 2.8.8 1.2.2.8.8 4.5 3.2z"/><path class="st1" d="M444.6 536l.3 2.8v2.5l-.3 2.2-.7 2-.5 1-.5.5-.8.8-.7.2-1 .3-1 .2-1.3-.2-1.2-.3-1.3-.7-1.2-1-1-1.3-1-1.5-1.8-3.2-1.2-3.8-1-3.5-.8-3-.5-2.7-13.5-25.5 1.8-1 2-1.5 1.2-1.3.5-1.5.5-1.7-.2-1-1.3-2-.7-1-1-.8-1.3-.2h-1.5l-2 .7 2.8-1.2 2.2-1.3 1.8-1.2 1.2-1.5 1 .5 8.5 21.5 5.5 14.2 1.3 1.3 3.2 3.5 1.8 2.2 1.5 2.5 1.5 2.5.2 1.3z"/><path class="st5" d="M322.4 396.3l1.2-1.8 1.3-1.5 1.7-1.7 2-1.5 2-1.3 2.5-1 2.8-.7 3.2-.3h1.8l2 .3 3.7 1 4 1.5 4 2 7.8 4.5 3.7 2 3.5 2 3 1.2 1.5.5 1.3.3h1.2l1.3-.3 1-.5.7-.7 2.3-2.3 1.7-1.7 1.8-1.3 1.5-.7 1.2-.5h2.5l1.3.5 2.2 1 2 1.5 2 1.7 1.3 2 1 2 .5 2v2l-.3 2.3-.7 1.2-1 1.5-1.3 1.8-1.5 1.5-1.7 1.2-2 1.5-2 1-2 1-2.3.5-2.2.3h-2l-2.3-.5-.7.2-1-2.5-1.3-2.5-1.5-2.5-1.7-2.2-2-2.3-2.3-2-2.7-1.7-2.8-1.8-4.2-2.2-4.3-2.3-2-1-2-.5-2-.2h-2l-1.7.2-1.8.5-2.2 1.3-1.5.7-1.3 1-1.2 1.5-1.5 1.5-1.5 1.8-1.3 2.2-1.5 2.5-1.2 3-1 2.5h-3.3l-1.5-.2-1.2-.5-1-.8-.8-.7-.7-1-.5-1-.5-1.5-.3-1.3-.2-3v-2l.2-.7.5-1.8 1-2zM383.9 455v4.3l-.3 1-.5 1-.5 1-1.5 1.7-2 1.5-2 1-2.2.5-2.3.3h-2.5l-2.2-.5-1-.5-1.3-.5-1-1-.7-1-.8-1.5-.5-2-.5-2.5-.2-3.3-.3-1.2-.5-1-.7-1-1-1-1.3-.8-1.2-.7-3.3-1.3.5-3.7 3 .2h5.3l2.7-.5 2.3-.7 2.5-1 2-1.3 2-1.5 2 1 2 1.5 1.7 2 1.3 2 1.2 2.5.8 2.3.7 2.5z"/><path class="st1" d="M329.4 415l1-2.5 1.3-3 1.5-2.5 1.3-2.3 1.5-1.8 1.5-1.5 1.3-1.5 1.3-1 1.5-.8 2.3-1.3 1.8-.5 1.8-.3h2l2 .3 2 .5 2 1 4.3 2.3 4.3 2.3 2.8 1.8 2.8 1.8 2.3 2 2 2.3 1.8 2.3 1.5 2.5 1.3 2.5 1 2.5.5 1.8.3 1.8.3 2-.3 1.8v1.8l-.5 1.8-.5 1.8-.8 1.5-1 1.5-.8 1.3-2.3 2.3-2 1.5-2 1.3-2.5 1-2.3.8-2.8.5h-5.3l-3-.3-2.5-.5-2.5-.8-2.8-1-2.5-1.3-3.5-1.5-3.8-1.5-1.8-.8-1.5-1-1.3-1-1.3-1.3-.8-1.3-.8-1.5-.5-2.3-.5-2.5-.3-3.3.3-3.5.5-2 .4-2.2zm27-2.2l.3-1.3v-1l-.5-.8-.8-.8-1-.3-1 .3-.8.5-.8.8-.3 1.3v1l.5.8.8.8 1 .3 1-.3.8-.5.8-.8zm-8 16.5l.5-1-.3-1-.3-1-.8-.8-1-.3-1 .3-1 .5-.8 1-.3 1v1l.5 1 .8.5 1 .3h1l1-.8.7-.7z"/><path class="st6" d="M355.4 409l.7.8.5.7v1l-.2 1.3-.8.7-.7.5-1 .3-1-.3-.8-.7-.5-.8v-1l.3-1.2.7-.8.8-.5 1-.2z"/><path class="st3" d="M110.6 253.8h245l.8 14.2v123.3h-1.8l-4-2-4-1.5-3.8-1-2-.3H339l-3.3.3-2.8.8-2.5 1-2 1.3-2 1.5-1.8 1.8-1.3 1.5-1.3 1.8h-69V505H109.1V253.8h1.5zM320.4 351v-60h-67v60h67zM205.9 462.5V402.4h-67v60h33.5l33.5.1zm0-111.5v-60h-67v60h67z"/><path class="st7" d="M355.6 253.8h-245v-11.5l37.8-31 21.5-17.8 62.5-51.5 122.5 101z"/><path class="st5" d="M320.4 434.8l-1.3-1.5-1-1.5-.7-1.5-.8-1.5-.7-3.3-.3-2.7v-2.5l.3-2 .5-1.8.2-.5.3-1.5 1.2-1.7.8-.8 1-1 .5-.2.5 1 .7 1 .8.7 1 .8 1.2.5 1.5.2h3.3l-.5 2-.5 2-.3 3.5.3 3.3.5 2.5.5 2.2.7 1.5.8 1.3 1.2 1.2 1.3 1 1.5 1 1.7.8 3.8 1.5 3.5 1.5 2.5 1.2 2.7 1 2.5.8 2.5.5-.5 3.7-3.2-1-3.8-1-7.7-2-3.8-1-3.7-1.2-3.8-1.5-3.2-1.8-2-1.5z"/><path class="st6" d="M347.6 425.5l.8.8.2 1 .3 1-.5 1-.5.7-1 .8h-1l-1-.3-.8-.5-.5-1v-1l.3-1 .7-1 1-.5 1-.2z"/><path class="st8" d="M291.6 505h-38.2V396.3h69l-1.3 2.2-1 2-.5 1.8-.2.7v2l.2 3 .3 1.3.5 1.5-.5.2-1 1-.8.8-1.2 1.7-.3 1.5-.2.5-.5 1.8-.3 2v2.5l.3 2.7.7 3.3.8 1.5.7 1.5 1 1.5 1.3 1.5v40.7l-.3.3-2 1.5-2.2 2.2-2.3 2.3-2.2 2.5-4.5 5.5-4 5.5-1.8 2.7-2 3.3-2 4-.2-.3z"/><path class="st9" d="M320.4 321.3V351h-33v-29.7zM320.4 291v30.3h-33V291zM287.4 321.3V351h-34v-29.7h3zM287.4 293v28.3h-34V291h34zM205.9 428.3v34.2h-33.5v-34.2zM205.9 402.5v25.8h-33.5v-25.8zM205.9 321.3V351h-33v-29.7zM205.9 291v30.3h-33V291zM172.9 321.3V351h-34v-29.7zM172.9 293v28.3h-34V291h34zM172.4 459.3v3.2h-33.5v-60h33.5v25.8z"/><path class="st7" d="M167.9 190.8l2 2.7-21.5 17.8h-12.3V160h31.8z"/><path class="st10" d="M253.4 505H109.1V253.8h247.3v137.5"/><path class="st10" d="M205.9 321.3V351h-67v-60h67zM205.9 428.3v34.2h-67v-60h67z"/><path class="st11" d="M320.4 432.3v44"/><path class="st10" d="M296.9 505h-43.5V396.3h71M320.4 321.3V351h-67v-60h67zM373.9 258.5l-19-15.5-122.5-101-62.5 51.5-21.5 17.8-37.8 31-18.7 15.5"/><path class="st10" d="M148.4 211.3h-12.3V160h31.8v30.8M172.4 403.5v55.8M172.4 428.3h33.5M138.9 321.3h67M172.9 293v58M287.4 293v58M256.4 321.3h64M481.6 276l-4.5-2.5-4.5-2.7-4.2-2.8-4-3.2-4.3-3.8-3.7-3.7-3.8-4-3.5-4.3-3.5-4.5-3.2-4.7-3-5-2.8-5-2.5-5.5-2.2-5.5-2-5.8-1.8-6-1.2-5-1.3-4.7-.7-5-.5-5-.5-4.8-.3-4.7V173l.3-4.7.2-4.8.8-4.5.7-4.5.8-4.5 1.2-4.2 1.3-4.3 1.5-4.2 1.5-4 2-3.8 2-3.7 2-3.8 2.2-3.5 2.5-3.2 2.5-3.3 2.8-3 3-2.7 3-2.8 3.2-2.5 3.3-2.2 3.2-2.3 3.8-1.7 3.5-1.8 4-1.2 3.7-1.3 4-1 4-.7 4-.5 4.3-.3 4 .3 4 .2 4 .5 3.7.8 4 1 4 1 3.8 1.5 3.7 1.7 3.8 1.8 3.7 2 3.8 2.2 3.5 2.5 3.5 2.5 3.2 2.8 3.3 3 3.2 3.2 3 3.3 3 3.5 2.8 3.7 2.7 3.8 2.5 4 2.5 4 2.3 4.2 2.2 4.5 1.8 4.5 2 4.5 1.5 5 1.5 4.8 1.5 5.7 1 5.5 1 5.8.5 5.5.2 5.5v10.7l-.5 5.3-.7 5.2-1 5.3-1 5-1.5 4.7-1.5 4.8-2 4.7-2 4.3-2.3 4.2-2 3.3-2 3-2 2.7-2.2 2.8-2.3 2.7-2.2 2.5-2.8 2.5-2.5 2.3-2.7 2-2.8 2-3 1.7-3 1.8-3 1.5-3.2 1.5-3.3 1-3.5 1-3 1-3.2.5-3 .5-3.3.2-3.2.3h-3l-6.3-.5-6.2-1-6.3-1.5-6-2.3zM479.6 279l-7 7.8-7.2 8.7-8.5 10.8-4.5 5.7-4.3 6.3-4.2 6.2-3.8 6.3-3.5 6.2-3 6-2.2 5.8-.8 2.7-.7 2.8-4.5 24-2.8 15.2-1.5 8.3-.5 3.5v.7"/><path class="st10" d="M573.4 247h.2l14 4.5 13.5 4.3 16.3 4.5 4.5 1.5 4.2 1.5 4 1.7 4 1.8 3.8 2 3.7 2 3.8 2.2 3.2 2.5 3.5 2.5 3.3 2.5 6 5.5 5.7 6 5.5 6.3 5 6.7 5 6.8 4.5 7 4.5 7 8.5 14.5 8.3 14.2 12.5 21 6.5 11 6.2 10.8 6 10.7 5.8 10.8 5 10.7 2.2 5 2 5.3 1.8 5 1.5 5 1.2 5 1 4.5.5 4.7.5 4.5-.2 4.3-.3 4.2-.7 4-1.3 4-1.7 3.8-2 3.5-2.8 3.2-3 3-3.5 3-4.2 2.5-11.3 6.3-10.7 5.2-9.8 4.5-9.2 3.3-4.8 1.5-4.2 1.2-4.3 1-4 .8-4 .5-3.7.2-3.5.3-3.3-.3"/><path class="st10" d="M623.1 292.8l-1 1.2-2.5 3.3-1.5 2.2-1.7 2.8-1.5 3.2-1.8 3.5-1.5 4-1 4.3-1 4.7-.5 5 .3 5.3.2 2.7.5 2.8.5 2.7.8 3 1 2.8 1.2 3 3 6.2 3.8 7 4.7 7.5 5 8 5.8 8.3 5.7 8.2 12.3 16.5 11.7 15.5 10.3 12.8 11.5 14 .2.5"/><path class="st10" d="M710.1 435.5l-4 1.5-1.5 1-1.5 1.3-5.5 4.7-10.2 9.3-16.3 14.2-24.5 21M296.4 504.3l-2.8.2-2 .5-1.5.5-1.2.5-2.3 1.5-2.5 2.3-2.7 2.5-2.8 3-2.5 3.5-2.7 4-2.3 4.2-2 4.8-1.5 4.7-.5 2.8-.5 2.5-.2 2.7v5.5l.5 3 .5 2.8.7 3 .8 3 1.2 3 1.5 3 1.8 3 2 3.2 2.2 3 2.8 3 2.7 3.3 12.3 11.7 11 10.5 10 9.3 8.7 7.7 12.8 10.8 4.5 3.7M700.6 524l.8 4.5 1 5 1.2 6.8 1 8 1 9 .8 10 .5 10.5-.3 10.7-.2 5.5-.5 5.5-.5 5.3-1 5.5-1 5.2-1.3 5-1.7 5-1.8 4.8-2.2 4.5-2.5 4.2-2.8 4-3.2 3.5-3.5 3.3-3.8 3-7.7 4.7-7.5 4-7.8 3.5-7.7 3-7.8 2.8-7.7 2-7.8 1.7-7.7 1.3-7.8 1-7.5.5-7.5.2h-7.2l-7.3-.2-7.2-.5-6.8-.8-6.7-.7-9.5-1.5-9-1.5-8.3-2-7.7-1.8-13.3-3.2-5.5-1.3-4.5-.7"/><path class="st10" d="M416.6 680.5l23-4 22.3-4.5 21.2-4.7 10-2.5 9.8-2.5 11.7-3.3 11-3.5 10-3.2 9-3.5 8-3.5 6.8-3.3 3-1.7 2.7-1.5 2.3-1.8 2-1.7 2.5-2.3 2.2-2.5 2-2.7 1.8-2.8 1.5-2.7 1.5-3 1.2-2.8 1-3 .5-3 .8-3.2.2-3v-6l-.5-3-.5-3-.7-3M546.1 559.8l-4.7-.8-4.8-.2h-6.5l-8 .7-7.7 1.3-7.8 1.7-7.2 2.3-7.3 2.5-7.2 3-7.3 3.2-7 3.8-7 3.7-7.2 4-14.8 8.8-15.2 8.7-8 4.5-8.3 4.5-9.5 4.8-10 4.5-10.2 4.5-11 4-7.3 2.5-7 2-6.5 2-6.2 1.7-8.8 2-8.2 1.5-7.8 1-6.7.8-6.3.5h-5.7l-5-.3-4.5-.2-3.8-.5-3.2-.5-5-1.5-2.8-1-1-.5-2-.5-5.5-1.8-8.5-2-5.2-1-5.5-1-6-1-6-.5-6.5-.5h-6.5l-6.3.3-6.5.7-6 1.3-3 .7-3 1-2.7 1.3-2.3 1.2-2.2 1.3-2 1.5-1.8 1.7-1.2 1.8-1.3 1.7-1 1.8-.7 2-.5 2-.5 2-.3 2.2v2l.3 2.3.2 2 .5 2.2 1.5 4.3 1.8 4 2.2 4 2.8 3.5 3 3.2 3.5 3 3.2 2.3 1.8.7 2 .8 6.7 2.2 6.5 1.8 6 1.2 5.5.8 5.3.5h4.7l4.5-.3 4-.5 3.8-.5 3.5-.7 6-1.5 5.2-1 2.3-.3h2l7.5.5 8 .3 8.2.2 8.5-.2 17.8-.5 18.7-1.3 19.3-1.5 19.5-2.2 19.7-2.8 20-3"/><path class="st10" d="M416.4 680.5h.2l4.8-.2 10-.3h6.5l7 .3 7.5.7 7.7 1 8 1.5 4 1 4 1 3.8 1.3 4 1.2 3.5 1.8 3.7 1.5 3.3 2 3.2 2.2 3 2.3 2.8 2.5 2.5 2.7 2.5 3 1.7 3.3 1.8 3.5 1.7 4.2 1.5 4.5 2.5 9 2.3 8.5 2.2 8 1.3 3.5 1.2 3.3 1.5 2.7 1.5 2.5 1.8 1.8 1 .7 1 .8 1.2.5 1 .2 1.3.3h1.2l4.8-.5 3.7-.8 3.5-1 2.8-1.2 2.2-1.5 1.8-2 1.5-2.5 1.2-2.8.8-3 .5-3.7.5-4.3.2-4.5 1-24.5.5-17.7V683l-.2-4.7-.3-1.3"/><path class="st12" d="M399.6 466.5l-5-2.2-1.5-.8-1.7-1-3-2.7-2.5-2.5-2-2.3-.8-1M395.1 414.8h1l4.5-.3 7 .3 3.8.2 3.2.5 2.8.8 1.2.2.8.8 4.5 3.2 5.2 3.5 5.3 3.5 5 3.8 2.2 1.7 2 1.8 1.5 1.7 1.5 1.8.8 1.7.5 1.5.2 1.8-.5 1.7-8.5 15.8v.2l-5.7 10.8-1 1.2-1.3 1-1.5.8-1.5.2-2.2.3-2.5-.3-2.8-.5-2.7-.7-3-1M412.4 499.5l1.2 2.3 13.5 25.5.5 2.7.8 3 1 3.5 1.2 3.8 1.8 3.2 1 1.5 1 1.3 1.2 1 1.3.7 1.2.3 1.3.2 1-.2 1-.3.7-.2.8-.8.5-.5.5-1 .7-2 .3-2.2v-2.5l-.3-2.8-.5-1.2-.2-1.3-1.5-2.5-1.5-2.5-1.8-2.2-3.2-3.5-1.3-1.3-5.5-14.2-8.5-21.5"/><path class="st12" d="M399.4 400.5l21.2 4.8 29 6.5 31.3-3.5 2.5-1.3 3-1 3.5-1.2 3.7-1 3.8-.5h1.7l1.5.2 1.5.5 1.3.8 1 .7 1 .8.5 1 .2.7.3 1-.3.8-.2 1-.3.7-1.2 1.5-1.8 1.5-2 1.5-2.2 1-2.8 1-2.7.5h-6l-4.8-.5-2-.2-31.7 8.2-19.3-2h-1.2M428.1 475.5l46.3 42 20 18.3 9-17 9.5-18.3 4.5-8.5"/><path class="st12" d="M563.9 536.3l-14.5-12-8-6.5-2-1.5-3-2-8.5-5.3-14.8-8.2-.2-.3-.8-.5M504.1 519.3l7.3 3.2 5.7 2.8 4 2 1 1 1.5 2 4.3 4.7 2.7 2.8 3.3 3 4 2.5 2 1.2 2.2 1 5.3 2"/><path class="st12" d="M447.9 437.8l87.5 20.7-7.8 14.3-9.5 18.2-5 9.8-.7 1.2"/><path class="st12" d="M567.4 508.3l-2.5-1-10-3.3-5.3-1.7-6-2-9.5-3.5-16-5.8-1-.5M528.4 473l7 4.3 5.5 3.2 3.7 2 1.5.3 2.5.2 6.3.8 4 .7 4.2 1 4.3 1.8 2 1 2.2 1.5 5.5 3.7 4.8 3.8M329.4 415l1-2.5 1.2-3 1.5-2.5 1.3-2.2 1.5-1.8 1.5-1.5 1.2-1.5 1.3-1 1.5-.7 2.2-1.3 1.8-.5 1.7-.2h2l2 .2 2 .5 2 1 4.3 2.3 4.2 2.2 2.8 1.8 2.7 1.7 2.3 2 2 2.3 1.7 2.2 1.5 2.5 1.3 2.5 1 2.5.5 1.8.2 1.7.3 2-.3 1.8v1.7l-.5 1.8-.5 1.7-.7 1.5-1 1.5-.8 1.3-2.2 2.2-2 1.5-2 1.3-2.5 1-2.3.7-2.7.5h-5.3l-3-.2-2.5-.5-2.5-.8-2.7-1-2.5-1.2-3.5-1.5-3.8-1.5-1.7-.8-1.5-1-1.3-1-1.2-1.2-.8-1.3-.7-1.5-.5-2.2-.5-2.5-.3-3.3.3-3.5.5-2z"/><path class="st12" d="M379.6 419.8l2.3.5h2l2.2-.3 2.3-.5 2-1 2-1 2-1.5 1.7-1.2 1.5-1.5 1.3-1.8 1-1.5.7-1.2.3-2.3v-2l-.5-2-1-2-1.3-2-2-1.7-2-1.5-2.2-1-1.3-.5h-2.5l-1.2.5-1.5.7-1.8 1.3-1.7 1.7-2.3 2.3-.7.7-1 .5-1.3.3h-1.2l-1.3-.3-1.5-.5-3-1.2-3.5-2-3.7-2-7.8-4.5-4-2-4-1.5-3.7-1-2-.3h-1.8l-3.2.3-2.8.7-2.5 1-2 1.3-2 1.5-1.7 1.7-1.3 1.5-1.2 1.8-1.3 2.2-1 2-.5 1.8-.2.7v2l.2 3 .3 1.3.5 1.5.5 1 .7 1 .8.7 1 .8 1.2.5 1.5.2h3.3l2.5-.7"/><path class="st12" d="M373.4 439h.5l2 1 2 1.5 1.7 2 1.3 2 1.2 2.5.8 2.3.7 2.5.3 2.2v4.3l-.3 1-.5 1-.5 1-1.5 1.7-2 1.5-2 1-2.2.5-2.3.3h-2.5l-2.2-.5-1-.5-1.3-.5-1-1-.7-1-.8-1.5-.5-2-.5-2.5-.2-3.3-.3-1.2-.5-1-.7-1-1-1-1.3-.8-1.2-.7-3.3-1.3-3.2-1-3.8-1-7.7-2-3.8-1-3.7-1.2-3.8-1.5-3.2-1.8-2-1.5-2-1.7-1.3-1.5-1-1.5-.7-1.5-.8-1.5-.7-3.3-.3-2.7v-2.5l.3-2 .5-1.8.2-.5.3-1.5 1.2-1.7.8-.8 1-1"/><path class="st13" d="M347.6 425.5l.8.8.2 1 .3 1-.5 1-.5.7-1 .8h-1l-1-.3-.8-.5-.5-1v-1l.3-1 .7-1 1-.5 1-.2zM355.4 409l.7.8.5.7v1l-.2 1.3-.8.7-.7.5-1 .3-1-.3-.8-.7-.5-.8v-1l.3-1.2.7-.8.8-.5 1-.2z"/><path class="st14" d="M362.9 432.8l1.5-1 1.2-1.3 1.3-1.5.7-1.5.8-1.7.2-2-.2-1.8-.5-1.7"/><path class="st12" d="M548.4 548.8l-9.5 6.5-.8.7-.7 1-.5.8-.3 1v1.7l.5 1.8 1 1.5 1.3 1.2 1.7 1 1.8.5h1l1-.2 1-.3 1.2-.5M566.4 536.8l-1.5.7-16.5 11.3M588.9 521.8l-22.5 15"/><path class="st15" d="M574.9 577.3l-.5.5-1.5 2.2-.5 1-.3.8v1l.5 1 .8 1.5 1 1.7 1 1 1 1 .7.5 1.3.3 1 .2h1l1.2-.2 1.3-.5 2.2-1 2.5-1.5 5.5-4 6-4.5 3.3-2 3.5-2.3 11-6 11.7-7 3-2 4-3 5-4 5.3-4.5 5.2-5 5.3-5 4.5-4.7 3.7-4.8 1.5-2.2 1.3-2 .5-1.8.2-1.5-1-3.5-1.2-3.5-1.8-4.2-1-2.3-1.5-2.2-1.2-2.3-1.8-2-1.7-2-2-1.7-2.3-1.3-2.5-1.2-5-1.5-5.2-1.3-5-1-4.5-.5-7-.5h-2.8l-6.7.3-7 .5-3.3.2-3.2.5-3 .8-2.5.7-5.5 2.5-6.5 3.3-9.3 4.5-3.7 1.7-3 1-.8.3-.5.5-.7 1-.5 1.5.2 1.7.5 1.8 1 1.7 1.5 1.5 1 .5 1.3.5 1.2.3 1.3.2h1.5l1.5-.2 2.7-.8 2.8-1 2.5-.7 5.2-1.3 2.8-.2h3.2l.8.5.5.5v.5l-.3 1-1.2 1.7-2.3 2.3-3.2 2.5-2.8 2-3.2 2"/><path class="st12" d="M617.9 553.5l-15.3 8.5-28.2 15.8-9.8 5.7-4 2-1.5.5-1 .3h-1.2l-.8-.3-2-.7-.7-.8-1-2-.3-1.2v-1.5l.3-1.3.5-.5.5-.5 1.5-1.2 4.7-3.3 6.3-4 14.5-9 18-11M554.9 576.3l-2.3 1.2-2 1-1.7 1-2 .3-1.5.2h-1.8l-1.2-.5-1.5-.7-.8-1-.5-1-.7-1.3-.3-1.2v-1.5l.3-1.3.5-.5.5-.5 7.2-5 34.5-22.7 21-13.8M399.4 467l.2-.2 4-1.5 1.3-.3h1l1.2.3 1 .5.8.5.7 1 .8.7.5 1.3.2 1 .3 1.2-.3 1.3-.2 1-.5 1.2-.8 1-1 1-1.2.8"/><path class="st12" d="M382.6 473.3l10.3-3.8 6.5-2.5M347.6 487.5l20.3-8.2 14.7-6"/><path class="st15" d="M401.4 507.3h3.2l1 .2.8.3.7.5.8 1 .7 1.2.8 2v.8l-.5.7-.8 1-1 1-3 2.3-4 2.5-4.7 2.7-4.8 2.8-9.7 5-11.3 5.5-12.5 5.7-4.5 1.8-6.7 2-8.3 2.2-9 2.3-9 1.5-4.2.5-3.8.5h-6.2l-2.3-.5-1-.5-.5-.5-2.5-2.5-2.2-3.3-2.5-3.7-1-2.3-1.3-2.2-1-2.5-.7-2.5-.5-2.8-.3-2.5v-2.7l.5-2.5 1.5-4.8 1.5-4.2 2-4.3 2-3.7 2-4 2-3.3 1.8-2.7 4-5.5 4.5-5.5 2.2-2.5 2.3-2.3 2.2-2.2 2-1.5.3-.3 3-2 3.5-2 7.7-4.2 7.3-4 2.7-1.8 2-1.5.8-.5 1-.2.7.2 1 .3.8.2 1 .8.7.7.8 1 .5 1 .2 1.3.3 1.2v1.5l-.5 1.5-.5 1.5-1 1.5-1.3 1.5-2 1.8-2.5 1.7-2 1.5-4 3.8-2 2-1.2 2-.5.7-.3.8.3.7.5.5 1 .3h2l3-.5 4.2-1.3 3-1.2 3.8-1.5"/><path class="st12" d="M415.4 500.8l2-1.5 1.2-1.3.5-1.5.5-1.7-.2-1-1.3-2-.7-1-1-.8-1.3-.2h-1.5l-2 .7-5.2 2-6.8 2.8-15.7 6.7-19.5 8.8"/><path class="st16" d="M411.4 502.8l.7-.3 1.5-.7 1.8-1"/><path class="st12" d="M357.1 529.5l15.8-8 28.7-14.2 9.8-4.5M411.6 490.5l2.8-1.2 2.2-1.3 1.8-1.2 1.2-1.5 1-1 .5-1.3.5-1.5v-1.2l-.2-.8-.8-1.7-.5-1-.7-1-1-.5-1-.5-1-.3-1 .3-8 3-38.3 15.5-23.5 9.5"/><path class="st10" d="M357.1 542.5l51.5 66"/><path class="st12" d="M430.6 506.5l43.8 11 4.2 1"/></symbol><symbol id="perro" viewBox="0 0 850.394 850.394"><path d="M155.15 209.05c4.68 11.42-6.92 11.89-14.27 8.74-7.8-14.78 9.32-20.84 14.27-8.74z" fill="#f6cc4b"/><path d="M762.43 541.44c12.32 4.71 18.061 31.189-15.12 14.64 0 0-51.21-53.41-61.609-94.95h-.01c2.5-31 7.43-71.91 7.43-79.45 0-1.16-.46-2.78-1.36-4.77 1.12 1.63 24.36 35.92 24.36 72.82-.001 37.83 34.029 86.97 46.309 91.71z" fill="#9c5b16"/><path d="M283.45 523.47c2.53 18.9 2.53 64.91 2.53 85.09 0 20.171-4.09 50.091-9.46 55.471l-51.66-.641s0-3.79 2.5-14.51c2.55-10.71 23.01-7.86 29.63-14.49 6.62-6.6 5.68-33.39 5.68-75 0-41.59-9.98-87.58-9.98-87.58l.01-.01c14.62 17.49 28.99 38.4 30.75 51.67zM678.49 578.84c-.44 1.04-14.42 34.33-18.141 46.09-3.77 11.971-3.149 20.181-17.02 24.59-13.86 4.4-35.92-4.409-35.92-4.409 0-6.301 3.78-13.87 12.6-13.87s12.61-6.311 16.391-23.33c3.779-17.01 0-31.48-6.931-45.98-6.93-14.52-31.52-45.37-49.17-63.04-22.67-22.68-21.43-55.659-21.43-55.659v-.04c9.83.579 18.08 3.21 23.31 8.449 16.09 16.061 38.771 60.16 58.63 80.03 15.641 15.639 28.151 34.809 37.681 47.169z" fill="#f6cc4b"/><path d="M88.1 231.04s40.94-7.55 40.94-17.64c0-10.07 2.54-23.31 24.58-35.29 4.27-2.31 8.8-4.25 13.47-5.83 7.29 0 16.26 16.2 17.78 22.23 2.23 8.92-.98 17.37-4.77 25.39-3.6 7.66-8.68 14.49-8.51 23.29.15 8.22 5.35 17.54 13.96 19.54 8.86 2.03 14.89-3.52 21.6-8.21 9.09-6.35 17.38-13.86 27.2-18.91 7.96-4.05 15.9-10.67 17.5-19.91.78-4.4 1.67-15.98-1.07-20.55.18.23.36.43.54.61 3.78 3.79 49.77 78.8 84.45 92.64 34.66 13.86 61.14 22.06 83.82 22.06 0 0 47.9-4.41 74.38-4.41 26.46 0 69.61-4.73 116.891 7.87 41.84 11.17 74.04 47.73 80.899 62.99.9 1.99 1.36 3.61 1.36 4.77 0 7.54-4.93 48.45-7.43 79.45-.841 10.51-1.41 19.88-1.41 26.43 0 25.841 33.41 72.48 37.189 81.94 3.78 9.44 0 71.83 0 90.1 0 18.29 0 34.67-13.239 34.67-13.221 0-30.24 0-34.65-4.399-4.41-4.42 4.41-14.51 15.76-20.18 11.34-5.66 6.3-72.471-3.79-82.551-2.14-2.14-4.49-4.97-7.06-8.3-9.53-12.359-22.04-31.53-37.681-47.17-19.859-19.87-42.54-63.97-58.63-80.03-5.229-5.239-13.479-7.87-23.31-8.449-20.34-1.19-47.45 6.42-68.7 17.89C458.66 478.1 378 494.49 352.78 498.89c-25.21 4.42-20.79 27.75-24.88 61.15-4.1 33.39 0 73.42-4.42 77.83-4.4 4.43-9.77 9.76-13.55 21.11-3.78 11.35-10.24 28.85-14.48 33.09-4.29 4.26-46.97 0-46.97 0l2.84-12.931c2.85-12.92 19.84-9.76 25.2-15.109 5.37-5.38 9.46-35.3 9.46-55.471 0-20.18 0-66.189-2.53-85.09-1.76-13.27-16.13-34.18-30.75-51.67-6.19-7.399-12.42-14.189-17.77-19.53-17.96-17.96-22.7-49.79-22.7-75.629 0-25.84-19.53-63.03-19.53-73.74 0-10.7-6.3-20.17-19.54-16.39-13.23 3.78-33.4 5.69-53.56 2.53-14.62-2.3-24.6-19.15-31.62-32.09 16.11.45 10.66-23.18 26.12-31.2-.84.13-20.56 3.4-31.3 7.84 2.47-1.77 5.3-2.55 5.3-2.55zm52.78-13.25c7.35 3.15 18.95 2.68 14.27-8.74-4.95-12.1-22.07-6.04-14.27 8.74z" fill="#9c5b16"/><path d="M250.78 195.15c2.74 4.57 1.85 16.15 1.07 20.55-1.6 9.24-9.54 15.86-17.5 19.91-9.82 5.05-18.11 12.56-27.2 18.91-6.71 4.69-12.74 10.24-21.6 8.21-8.61-2-13.81-11.32-13.96-19.54-.17-8.8 4.91-15.63 8.51-23.29 3.79-8.02 7-16.47 4.77-25.39-1.52-6.03-10.49-22.23-17.78-22.23 19.48-6.61 41.24-7.03 55.31-2.66 17.35 5.41 24.48 20.83 28.38 25.53z" fill="#9c5b16"/><path d="M82.8 233.59c10.74-4.44 30.46-7.71 31.3-7.84-15.46 8.02-10.01 31.65-26.12 31.2-2.67-4.91-4.91-9.25-6.82-12.03-3.8-5.52-1.35-9.16 1.64-11.33z"/><path d="M86.98 256.9s-8.93-10.03-10.95-17.33c-.58-2.1 2.32-4.14 6.77-5.98-2.99 2.17-5.44 5.81-1.64 11.33 1.91 2.78 4.15 7.12 6.82 12.03-.32 0-.66-.02-1-.05z" fill="#231f20"/><g fill="none" stroke="#231f20"><path d="M87.98 256.95c7.02 12.94 17 29.79 31.62 32.09 20.16 3.16 40.33 1.25 53.56-2.53 13.24-3.78 19.54 5.69 19.54 16.39 0 10.71 19.53 47.9 19.53 73.74 0 25.84 4.74 57.669 22.7 75.629 5.35 5.341 11.58 12.131 17.77 19.53 14.62 17.49 28.99 38.4 30.75 51.67 2.53 18.9 2.53 64.91 2.53 85.09 0 20.171-4.09 50.091-9.46 55.471-5.36 5.35-22.35 2.189-25.2 15.109l-2.84 12.931s42.68 4.26 46.97 0c4.24-4.24 10.7-21.74 14.48-33.09 3.78-11.351 9.15-16.681 13.55-21.11 4.42-4.41.32-44.44 4.42-77.83 4.09-33.4-.33-56.73 24.88-61.15 25.22-4.399 105.88-20.79 137.39-37.81 21.25-11.47 48.36-19.08 68.7-17.89 9.83.579 18.08 3.21 23.31 8.449 16.09 16.061 38.771 60.16 58.63 80.03 15.641 15.64 28.15 34.811 37.681 47.17 2.569 3.33 4.92 6.16 7.06 8.3 10.09 10.08 15.13 76.891 3.79 82.551-11.35 5.67-20.17 15.76-15.76 20.18 4.41 4.399 21.43 4.399 34.65 4.399 13.239 0 13.239-16.38 13.239-34.67 0-18.27 3.78-80.659 0-90.1-3.779-9.46-37.189-56.1-37.189-81.94 0-6.55.569-15.92 1.41-26.43 2.5-31 7.43-71.91 7.43-79.45 0-1.16-.46-2.78-1.36-4.77-6.859-15.26-39.06-51.82-80.899-62.99-47.28-12.6-90.431-7.87-116.891-7.87-26.479 0-74.38 4.41-74.38 4.41-22.68 0-49.16-8.2-83.82-22.06-34.68-13.84-80.67-88.85-84.45-92.64-.18-.18-.36-.38-.54-.61-3.9-4.7-11.03-20.12-28.38-25.53-14.07-4.37-35.83-3.95-55.31 2.66-4.67 1.58-9.2 3.52-13.47 5.83-22.04 11.98-24.58 25.22-24.58 35.29 0 10.09-40.94 17.64-40.94 17.64s-2.83.78-5.3 2.55" stroke-width="21"/><path d="M252.69 471.81s9.98 45.99 9.98 87.58c0 41.61.94 68.4-5.68 75-6.62 6.63-27.08 3.78-29.63 14.49-2.5 10.72-2.5 14.51-2.5 14.51l51.66.641M558.87 443.23s-1.24 32.979 21.43 55.659c17.65 17.67 42.24 48.521 49.17 63.04 6.931 14.5 10.71 28.971 6.931 45.98-3.78 17.02-7.57 23.33-16.391 23.33-8.819 0-12.6 7.569-12.6 13.87 0 0 22.06 8.81 35.92 4.409 13.87-4.409 13.25-12.619 17.02-24.59 3.721-11.76 17.7-45.05 18.141-46.09.01-.01.01-.02.01-.02M691.72 376.85s.011.02.04.06c1.12 1.63 24.36 35.92 24.36 72.82 0 37.829 34.03 86.97 46.31 91.71 12.32 4.71 18.061 31.189-15.12 14.64 0 0-51.21-53.41-61.609-94.95M167.09 172.28c7.29 0 16.26 16.2 17.78 22.23 2.23 8.92-.98 17.37-4.77 25.39-3.6 7.66-8.68 14.49-8.51 23.29.15 8.22 5.35 17.54 13.96 19.54 8.86 2.03 14.89-3.52 21.6-8.21 9.09-6.35 17.38-13.86 27.2-18.91 7.96-4.05 15.9-10.67 17.5-19.91.78-4.4 1.67-15.98-1.07-20.55-.21-.36-.45-.68-.72-.95" stroke-width="21"/><path d="M82.8 233.59c-4.45 1.84-7.35 3.88-6.77 5.98 2.02 7.3 10.95 17.33 10.95 17.33.34.03.68.05 1 .05 16.11.45 10.66-23.18 26.15-31.21-.01.01-.02.01-.03.01-.84.13-20.56 3.4-31.3 7.84z" stroke-width="14"/><path d="M140.88 217.79c-7.8-14.78 9.32-20.84 14.27-8.74 4.68 11.42-6.92 11.89-14.27 8.74z" stroke-width="7"/></g><path fill="none" d="M0 0h850.394v850.394H0z"/></symbol><symbol id="abrigo" viewBox="0 0 850.394 850.394"><path d="M331.34 582.22v-75.44h-73.81l-11.03 54.2-.75 3.699-83.28-11.6s.6-2.28 1.63-6.41c3.37-13.51 11.25-46.83 17.34-85.3 11.6-73.28 35.32-208.22 35.32-208.22s14.23-62.2 33.74-73.27c12.26-6.97 42.61-18.94 64-27.88l1.17.34c-7.55 32.44-18.26 88.68-18.26 88.68s60.62-45.86 77.49-55.87c16.86-10.02 25.3-22.67 40.58-12.13 10.27 17.11 21.44 44.64 23 65.79.119 3.6.199 7.01.199 10.12V778.39H202.52l14.85-146.84 2.21.22s81.42 7.051 93.02-4.539c16.87-16.871 18.74-45.011 18.74-45.011zm90.01-243.08c0-6.16-4.99-11.14-11.14-11.14-6.14 0-11.13 4.98-11.13 11.14 0 6.15 4.99 11.13 11.13 11.13 6.15 0 11.14-4.98 11.14-11.13zm-.13 178.09c0-6.15-4.99-11.131-11.14-11.131-6.14 0-11.13 4.98-11.13 11.131 0 6.149 4.99 11.149 11.13 11.149 6.15.001 11.14-4.999 11.14-11.149zm-.13-87.23c0-6.16-4.99-11.14-11.14-11.14-6.14 0-11.13 4.98-11.13 11.14 0 6.15 4.99 11.13 11.13 11.13 6.15 0 11.14-4.98 11.14-11.13zm-.13 178.56c0-6.159-4.99-11.14-11.15-11.14-6.14 0-11.13 4.98-11.13 11.14 0 6.15 4.99 11.141 11.13 11.141 6.16-.001 11.15-4.991 11.15-11.141z" fill="#be0000"/><path d="M331.34 506.78v75.439s-1.87 28.141-18.74 45.011c-11.6 11.59-93.02 4.539-93.02 4.539l-2.21-.22 3.19-31.55v-.01l25.72 3.7 8.91-38.48-8.69-4.229 11.03-54.2h73.81z" fill="#be0000"/><path d="M415.48 173.02c-15.28-10.54-23.72 2.11-40.58 12.13-16.87 10.01-77.49 55.87-77.49 55.87s10.71-56.24 18.26-88.68c1.93-8.27 3.65-14.99 4.93-18.85 6.33-18.98 64.5-38.13 64.5-38.13-4.36 2.88-6.62 6.7-4.93 11.77 6.85 20.56 24.24 47.44 35.31 65.89zM164.1 546.67c-1.03 4.13-1.63 6.41-1.63 6.41l83.28 11.6.75-3.699 8.69 4.229-8.91 38.48-25.72-3.7-77.07-11.07 6.33-42.25H164.1zM540.33 151.23c6.86 31.03 15.37 78.2 15.37 78.2s-52.58-33.98-69.45-43.99c-16.87-10.01-25.29-22.67-40.59-12.12 11.07-18.45 28.46-45.34 35.32-65.89 1.63-4.89-.32-8.63-4.24-11.49 1.56.42 51.649 13.99 57.88 32.67 1.52 4.57 3.53 12.78 5.71 22.62z" fill="#9e5b16"/><path d="M476.73 95.94h.01c3.92 2.86 5.87 6.6 4.24 11.49-6.86 20.55-24.25 47.44-35.32 65.89-9.48 15.78-7.84 44.11-7.18 65.49-1.561-21.15-12.73-48.68-23-65.79-11.07-18.45-28.46-45.33-35.31-65.89-1.69-5.07.57-8.89 4.93-11.77 13.31-8.78 46.2-8.78 46.2-8.78s32.84.17 45.43 9.36z" fill="#be0000"/><path d="M711.33 546.97l6.33 42.25-77.08 11.07-25.71 3.69-8.91-38.48 8.69-4.22.75 3.7 83.279-11.601s-.6-2.229-1.609-6.3l.449-.11h13.811z" fill="#9e5b16"/><path d="M640.58 600.29l3.89 32.16s-86.25 7.05-97.84-4.55c-16.87-16.86-18.74-45-18.74-45v-75.44h74.19l1.55-.32 11.021 54.141-8.69 4.22 8.91 38.48 25.709-3.691z" fill="#be0000"/><path d="M614.65 561.28l-11.02-54.14-1.55.32h-74.19v75.44s1.87 28.14 18.74 45c11.59 11.6 97.84 4.55 97.84 4.55l17.71 146.24H418.25v-.301h20.43V243.66c0-1.57-.06-3.19-.199-4.85-.66-21.38-2.301-49.71 7.18-65.49 15.3-10.55 23.72 2.11 40.59 12.12 16.87 10.01 69.45 43.99 69.45 43.99s-8.51-47.17-15.37-78.2c21.33 8.89 58.13 22.02 70.32 28.94 19.51 11.07 33.729 73.27 33.729 73.27s23.72 134.95 35.32 208.22c6.109 38.59 14.03 71.99 17.37 85.42 1.01 4.07 1.609 6.3 1.609 6.3l-83.279 11.6-.75-3.7z" fill="#be0000"/><path d="M410.21 328c6.15 0 11.14 4.98 11.14 11.14 0 6.15-4.99 11.13-11.14 11.13-6.14 0-11.13-4.98-11.13-11.13 0-6.16 4.99-11.14 11.13-11.14zM410.08 506.1c6.15 0 11.14 4.98 11.14 11.131 0 6.149-4.99 11.149-11.14 11.149-6.14 0-11.13-5-11.13-11.149 0-6.151 4.99-11.131 11.13-11.131zM409.95 418.86c6.15 0 11.14 4.98 11.14 11.14 0 6.15-4.99 11.13-11.14 11.13-6.14 0-11.13-4.979-11.13-11.13 0-6.16 4.99-11.14 11.13-11.14zM409.81 597.42c6.16 0 11.15 4.98 11.15 11.14 0 6.15-4.99 11.141-11.15 11.141-6.14 0-11.13-4.99-11.13-11.141 0-6.16 4.99-11.14 11.13-11.14z"/><g fill="none" stroke="#000" stroke-width="18.977"><path d="M314.5 152c-21.39 8.94-51.74 20.91-64 27.88-19.51 11.07-33.74 73.27-33.74 73.27s-23.72 134.94-35.32 208.22c-6.09 38.47-13.97 71.79-17.34 85.3-1.03 4.13-1.63 6.41-1.63 6.41l83.28 11.6.75-3.699 11.03-54.2 30.92-151.9"/><path d="M385.1 95.36s-58.17 19.15-64.5 38.13c-1.28 3.86-3 10.58-4.93 18.85-7.55 32.44-18.26 88.68-18.26 88.68s60.62-45.86 77.49-55.87c16.86-10.02 25.3-22.67 40.58-12.13M442.9 778.39H202.52l14.85-146.84 3.19-31.55"/><path d="M257.15 506.78h74.19v75.439s-1.87 28.141-18.74 45.011c-11.6 11.59-93.02 4.539-93.02 4.539"/><path d="M163.63 546.67h-13.81l-6.33 42.25 77.07 11.07 25.72 3.7 8.91-38.48-8.69-4.23-2.27-1.11M540.33 151.23c21.33 8.89 58.13 22.02 70.32 28.94 19.51 11.07 33.729 73.27 33.729 73.27s23.72 134.95 35.32 208.22c6.109 38.59 14.03 71.99 17.37 85.42 1.01 4.07 1.609 6.3 1.609 6.3l-83.278 11.6-.75-3.7-11.02-54.14-30.93-151.97M476.73 95.94c-12.591-9.19-45.431-9.36-45.431-9.36s-32.89 0-46.2 8.78c-4.36 2.88-6.62 6.7-4.93 11.77 6.85 20.56 24.24 47.44 35.31 65.89 10.27 17.11 21.44 44.64 23 65.79.14 1.66.199 3.28.199 4.85v534.73"/><path d="M438.68 248.93c0-3.11-.08-6.52-.199-10.12-.66-21.38-2.301-49.71 7.18-65.49 11.07-18.45 28.46-45.34 35.32-65.89 1.63-4.89-.32-8.63-4.24-11.49"/><path d="M476.7 95.93s.01 0 .03.01h.01c1.56.42 51.649 13.99 57.88 32.67 1.52 4.57 3.53 12.78 5.71 22.62 6.86 31.03 15.37 78.2 15.37 78.2s-52.58-33.98-69.45-43.99c-16.87-10.01-25.29-22.67-40.59-12.12M418.25 778.69h243.93l-17.71-146.24-3.89-32.16"/><path d="M602.08 507.46h-74.19v75.44s1.87 28.14 18.74 45c11.59 11.6 97.84 4.55 97.84 4.55"/><path d="M697.52 546.97h13.81l6.33 42.25-77.08 11.07-25.71 3.69-8.91-38.48 8.69-4.22 2.27-1.1"/></g><path fill="none" d="M0 0h850.394v850.394H0z"/></symbol><symbol id="llaves" viewBox="0 0 850.394 850.394"><g fill="#fbed24"><path d="M288.94 77.08h69.79v27.44h-69.79zM288.94 161.79h69.79v27.44h-69.79zM396.91 63.36v141.98h-38.18V63.36zM442.24 56.51v574.14h-45.33V56.51zM544.84 703.43c4.12 18.41 16.12 43.54 0 59.65-27.68 27.68-106.729 32.189-120.74 32.78-14.01-.591-93.05-5.101-120.74-32.78-16.1-16.11-4.11-41.24 0-59.65 9.34-41.76 20.28-72.779 20.28-72.779H524.559c.001-.001 10.951 31.019 20.281 72.779zm-65.61 37.58c0-14.17-25.641-25.649-57.271-25.649-31.62 0-57.26 11.479-57.26 25.649 0 14.16 25.64 25.65 57.26 25.65 31.631 0 57.271-11.49 57.271-25.65z"/></g><g fill="none" stroke="#231f20" stroke-width="21"><path d="M396.91 630.65V205.34M396.91 63.36v-6.85h45.33v574.14M426.24 795.94s-.75-.021-2.14-.08c-14.01-.591-93.05-5.101-120.74-32.78-16.1-16.11-4.11-41.24 0-59.65 9.34-41.76 20.28-72.779 20.28-72.779H524.559s10.95 31.02 20.28 72.779c4.12 18.41 16.12 43.54 0 59.65-27.68 27.68-106.729 32.189-120.74 32.78-1.39.06-2.14.08-2.14.08"/><path d="M364.7 741.01c0-14.17 25.64-25.649 57.26-25.649 31.63 0 57.271 11.479 57.271 25.649 0 14.16-25.641 25.65-57.271 25.65-31.62 0-57.26-11.49-57.26-25.65zM358.73 161.79v-57.27M358.73 77.08V63.36h38.18v141.98h-38.18v-16.11M288.94 161.79h69.79v27.44h-69.79zM288.94 77.08h69.79v27.44h-69.79z"/></g><path fill="none" d="M0 0h850.394v850.394H0z"/></symbol><symbol id="mochila" viewBox="0 0 850.394 850.394"><path d="M688.94 350.88c-6.69.5-43 6.89-66.65 10.68-22.76 3.49-45.7 6.39-68.55 9.28-44.01 5.59-187.39 16.56-198.17 28.14-12.87 13.77-6.78 22.35 1.6 26.14 4.19 1.899 8.88 2.7 12.17 2.3 82.521-8.98 185.8-23.45 268.41-32.83 17.86-2 53.98-4.69 67.16-18.66 4.59-4.89 5.479-9.28 4.09-13.08-2.4-6.68-11.78-11.27-20.06-11.97zM379.12 786.13c-10.97-3.7-21.25-9.18-30.43-17.26-22.55-19.76-34.13-46.601-38.82-76.24-2.29-14.46 3.29-132.31 1.8-150.27-3.79-45.301 2.69-89.601 2.69-135.101 0-22.05 11.78-51.49 33.23-57.77 40.01-11.88 94.101-14.17 140.49-16.67 50.2-2.7 85.2-14.89 146.27-29.25 1.94-.46 3.91-.92 5.9-1.38 4.79-1.2 9.68-2.3 14.77-3.39 34.12-7.49 54.271 23.85 65.45 60.76 7.88 25.65 11.48 54.18 12.471 74.04 2.199 42.61-1.79 85.42.31 128.021 1.89 36.02 8.37 73.74-1.8 108.86-22.251 76.13-112.551 76.74-176.711 92.7-40.521 10.181-95.101 30.53-142.99 28.431-11.28-.401-22.25-2.091-32.63-5.481z" fill="#0b00ea"/><path d="M709 362.85c1.39 3.8.5 8.19-4.09 13.08-13.18 13.97-49.3 16.66-67.16 18.66-82.61 9.38-185.89 23.85-268.41 32.83-3.29.4-7.98-.4-12.17-2.3-8.38-3.79-14.47-12.37-1.6-26.14 10.78-11.58 154.161-22.55 198.17-28.14 22.85-2.89 45.79-5.79 68.55-9.28 23.65-3.79 59.96-10.18 66.65-10.68 8.28.7 17.66 5.29 20.06 11.97z" fill="#a3d9ff"/><path d="M630.59 283.4c-16.25 3.19-33.51 3.52-48.71 3.52-42.91 0-83.92 5.29-125.53 12.87-21.75 3.9-44.1 5.99-65.66 11.68-19.95 5.29-44.5 7.88-63.65 14.27-17.27 5.79-37.13 16.06-46.7-.6-17.87-31.03-19.16-40.31-25.55-62.56-7.18-25.15-17.86-63.46-15.86-88.01.3-4.69 1.2-8.88 2.59-12.37 1.2-3.1 2.9-5.59 4.99-7.49 24.85-20.15 55.58-20.85 86.91-22.65a3572.6 3572.6 0 0 0 47.3-2.99c.09-.01.17-.01.26-.02 13.29-.89 26.47-1.77 39.76-2.85.1 0 .19-.01.29-.02 18.161-1.3 36.31-2.8 54.38-4.3 26.54-2.29 59.97-10.97 88.51-8.08 4.89.5 9.67 1.3 14.26 2.6 41.82 11.77 67.96 82.81 85.62 119.03 8.38 17.07 13.46 28.24-5.689 38.62-6.88 3.79-14.57 6.39-22.551 8.28-1.64.39-3.3.75-4.97 1.07z" fill="#787878"/><path d="M379.12 786.13c10.38 3.39 21.35 5.08 32.63 5.48v.109c-21.95 7.58-96.19 2.99-125.12-8.489-45.9-18.15-67.76-31.23-79.63-78.02-1.3-5.29-2.4-11.67-3.2-18.77-3.79-32.521-2.59-80.11-1.49-104.66.89-18.471-23.45-407.21 36.62-407.21-2 24.55 8.68 62.86 15.86 88.01 6.39 22.25 7.68 31.53 25.55 62.56 9.57 16.66 29.43 6.39 46.7.6 19.15-6.39 43.7-8.98 63.65-14.27 21.56-5.69 43.91-7.78 65.66-11.68 41.61-7.58 82.62-12.87 125.53-12.87 15.2 0 32.46-.33 48.71-3.52-.03 1.81-.04 3.63.12 5.29.38 4.02 1.59 7.66 2.68 11.35.341 1.16.67 2.34.96 3.53-61.069 14.36-96.069 26.55-146.27 29.25-46.39 2.5-100.48 4.79-140.49 16.67-21.45 6.28-33.23 35.72-33.23 57.77 0 45.5-6.48 89.8-2.69 135.101 1.49 17.96-4.09 135.81-1.8 150.27 4.69 29.64 16.27 56.48 38.82 76.24 9.18 8.079 19.46 13.559 30.43 17.259z" fill="#a3d9ff"/><path d="M563.92 113.8c-28.54-2.89-61.97 5.79-88.51 8.08-18.07 1.5-36.22 3-54.38 4.3-.1.01-.19.02-.29.02l-.03-.44c1.17-7.46 1.23-14.73 3.62-22.01 8.58-26.11 34.7-51.69 63.55-51.61 12.38 0 23.561 2.59 33.13 10.87 9.58 8.29 17.96 25.85 42.91 50.79zM246.51 154.71c-2.09 1.9-3.79 4.39-4.99 7.49-1.39 3.49-2.29 7.68-2.59 12.37-60.07 0-35.73 388.74-36.62 407.21-1.1 24.55-2.3 72.14 1.49 104.66-12.57-12.471-23.65-18.95-37.41-32.721-7.79-7.779-24.55-30.63-30.74-66.05-9.27-52.689-5.59-135.01-3.19-196.87 2.59-69.45 10.88-146.18 23.45-203.16 6.58-29.74 14.27-54.08 22.95-69.35 16.05-28.25 46.99-39.78 77.55-43.54 31.48-3.88 65.3 3.06 93.49 17.59 7.11 3.66 13.56 8.35 18.66 14.56 2.57 3.13 4.75 6.55 6.72 10.08 1.5 2.69 5.65 8.26 5.65 11.32l.05.75c-.09.01-.17.01-.26.02a3572.6 3572.6 0 0 1-47.3 2.99c-31.33 1.801-62.06 2.501-86.91 22.651z" fill="#787878"/><g fill="none" stroke="#000" stroke-width="28.092"><path d="M634.35 303.57c1.94-.46 3.91-.92 5.9-1.38 4.79-1.2 9.68-2.3 14.77-3.39 34.12-7.49 54.271 23.85 65.45 60.76 7.88 25.65 11.48 54.18 12.471 74.04 2.199 42.61-1.79 85.42.31 128.021 1.89 36.02 8.37 73.74-1.8 108.86C709.2 746.61 618.9 747.22 554.74 763.18c-40.521 10.181-95.101 30.53-142.99 28.431-11.28-.4-22.25-2.091-32.63-5.48-10.97-3.7-21.25-9.18-30.43-17.26-22.55-19.76-34.13-46.601-38.82-76.24-2.29-14.46 3.29-132.31 1.8-150.27-3.79-45.301 2.69-89.601 2.69-135.101 0-22.05 11.78-51.49 33.23-57.77 40.01-11.88 94.101-14.17 140.49-16.67 50.2-2.7 85.2-14.89 146.27-29.25zM243.32 157.31c1.1-1 2.09-1.9 3.19-2.6 24.85-20.15 55.58-20.85 86.91-22.65a3572.6 3572.6 0 0 0 47.3-2.99c.09-.01.17-.01.26-.02 13.29-.89 26.47-1.77 39.76-2.85.1 0 .19-.01.29-.02 18.161-1.3 36.31-2.8 54.38-4.3 26.54-2.29 59.97-10.97 88.51-8.08 4.89.5 9.67 1.3 14.26 2.6 41.82 11.77 67.96 82.81 85.62 119.03 8.38 17.07 13.46 28.24-5.689 38.62-6.88 3.79-14.57 6.39-22.551 8.28-1.64.39-3.3.75-4.97 1.07-16.25 3.19-33.51 3.52-48.71 3.52-42.91 0-83.92 5.29-125.53 12.87-21.75 3.9-44.1 5.99-65.66 11.68-19.95 5.29-44.5 7.88-63.65 14.27-17.27 5.79-37.13 16.06-46.7-.6-17.87-31.03-19.16-40.31-25.55-62.56-7.18-25.15-17.86-63.46-15.86-88.01.3-4.69 1.2-8.88 2.59-12.37 1.2-3.1 2.9-5.59 4.99-7.49M688.94 350.88c-1.4-.1-2.79-.1-4.091 0"/><path d="M688.94 350.88c-6.69.5-43 6.89-66.65 10.68-22.76 3.49-45.7 6.39-68.55 9.28-44.01 5.59-187.39 16.56-198.17 28.14-12.87 13.77-6.78 22.35 1.6 26.14 4.19 1.899 8.88 2.7 12.17 2.3 82.521-8.98 185.8-23.45 268.41-32.83 17.86-2 53.98-4.69 67.16-18.66 4.59-4.89 5.479-9.28 4.09-13.08-2.4-6.68-11.78-11.27-20.06-11.97zM689.54 350.88h-.6M356.87 425.82c-6.09 33.331 1.6 62.86 1.6 96.291 0 54.88-9.68 173.72-3.6 209.229 2.1 12.38 11.38 47.01 24.25 54.79 1.6.89 3.29 1.5 4.99 1.5"/><path d="M238.93 174.57c-60.07 0-35.73 388.74-36.62 407.21-1.1 24.55-2.3 72.14 1.49 104.66.8 7.1 1.9 13.479 3.2 18.77 11.87 46.79 33.73 59.87 79.63 78.021 28.93 11.479 103.17 16.069 125.12 8.489M420.71 125.76c1.17-7.46 1.23-14.73 3.62-22.01 8.58-26.11 34.7-51.69 63.55-51.61 12.38 0 23.561 2.59 33.13 10.87 9.58 8.29 17.96 25.85 42.91 50.79"/><path d="M380.93 128.3c0-3.06-4.15-8.63-5.65-11.32-1.97-3.53-4.15-6.95-6.72-10.08-5.1-6.21-11.55-10.9-18.66-14.56-28.19-14.53-62.01-21.47-93.49-17.59-30.56 3.76-61.5 15.29-77.55 43.54-8.68 15.27-16.37 39.61-22.95 69.35-12.57 56.98-20.86 133.71-23.45 203.16-2.4 61.86-6.08 144.181 3.19 196.87 6.19 35.42 22.95 58.271 30.74 66.05 13.76 13.771 24.84 20.25 37.41 32.721M235.14 158.9c-34.03-32.12-66.26-15.86-79.23 28.74M633.39 300.04c-1.09-3.69-2.3-7.33-2.68-11.35-.16-1.66-.15-3.48-.12-5.29 0-.27 0-.53.01-.8M634.47 304.05l-.12-.48c-.29-1.19-.619-2.37-.96-3.53"/></g><path fill="none" d="M0 0h850.394v850.394H0z"/></symbol><symbol id="puerta" viewBox="0 0 850.394 850.394"><path fill="#0071bc" d="M320.89 134.97h76.51v327.89h-76.51zM320.89 547.3h76.51v180.62h-76.51zM455.47 547.3h76.511v180.62H455.47z"/><path d="M589.09 94.12v680.69H264.47V94.12h324.62zm-29.38 407.55c0-7.25-5.87-13.12-13.11-13.12-7.25 0-13.119 5.87-13.119 13.12 0 7.24 5.869 13.11 13.119 13.11 7.24 0 13.11-5.87 13.11-13.11zm-26.77-38.81V134.97h-76.52v327.89h76.52zm-.96 265.06V547.3h-76.51v180.62h76.51zm-60.8-213.14v-21.31h-89.35v21.311h89.35zM397.4 727.92V547.3h-76.51v180.62h76.51zm0-265.06V134.97h-76.51v327.89h76.51z" fill="#394ea1"/><path fill="#0071bc" d="M456.42 134.97h76.521v327.89H456.42z"/><path d="M546.6 488.55c7.24 0 13.11 5.87 13.11 13.12 0 7.24-5.87 13.11-13.11 13.11-7.25 0-13.119-5.87-13.119-13.11-.001-7.25 5.869-13.12 13.119-13.12zM381.83 493.47h89.35v21.311h-89.35z" fill="#fbed24"/><path fill="#0071bc" d="M611.14 70.94v703.87h-22.05V94.12H264.47v680.69h-22.02V70.94z"/><g fill="none" stroke="#231f20"><path stroke-width="6.558" d="M264.47 777.79V94.12h324.62V777.79"/><path stroke-width="19.674" d="M242.45 779.2V70.94h368.69V779.2"/><path stroke-width="19.674" d="M320.89 134.97h76.51v327.89h-76.51zM320.89 547.3h76.51v180.62h-76.51zM455.47 547.3h76.511v180.62H455.47zM456.42 134.97h76.521v327.89H456.42z"/><path stroke-width="13.116" d="M381.83 493.47h89.35v21.311h-89.35zM559.71 501.67c0 7.24-5.87 13.11-13.11 13.11-7.25 0-13.119-5.87-13.119-13.11 0-7.25 5.869-13.12 13.119-13.12 7.24 0 13.11 5.87 13.11 13.12z"/><path stroke-width="26.232" d="M226.45 774.81h401.13"/></g><path fill="none" d="M0 0h850.394v850.394H0z"/></symbol></svg>
